<?xml version="1.0" encoding="utf-8"?>
<!-- Generator: Adobe Illustrator 15.0.0, SVG Export Plug-In . SVG Version: 6.00 Build 0)  -->
<!DOCTYPE svg PUBLIC "-//W3C//DTD SVG 1.1//EN" "http://www.w3.org/Graphics/SVG/1.1/DTD/svg11.dtd">
<svg version="1.1" id="Capa_1" xmlns="http://www.w3.org/2000/svg" xmlns:xlink="http://www.w3.org/1999/xlink" x="0px" y="0px"
	 width="113.387px" height="113.386px" viewBox="0 0 113.387 113.386" enable-background="new 0 0 113.387 113.386"
	 xml:space="preserve">
<g id="bvgUFs_2_">
	<g>
		<path fill-rule="evenodd" clip-rule="evenodd" d="M49.612,8.148c5.052,0,10.104,0,15.157,0c0.942,0.341,2.114,0.888,2.786,1.56
			c2.471,2.471,1.495,7.218,1.672,12.149c0.552,0.553,1.548,0.84,2.451,1.226c0.327,0.139,0.685,0.351,0.893,0.334
			c0.858-0.067,2.912-2.69,3.565-3.344c1.204-1.202,2.354-2.562,3.567-3.231c1.542-0.853,3.951-1.018,5.795-0.112
			c1.262,0.619,2.198,1.859,3.232,2.899c1.527,1.534,3.659,3.67,5.238,5.237c1.588,1.574,3.667,3.002,3.345,6.353
			c-0.271,2.812-2.43,4.347-4.125,6.02c-1.129,1.113-2.287,2.119-3.343,3.454c0.577,1.094,0.904,2.438,1.561,3.456
			c3.414,0.285,6.782-0.44,9.361,0.111c2.26,0.482,3.796,2.25,4.459,4.347c0,5.052,0,10.104,0,15.157
			c-0.604,1.867-2.016,3.636-4.124,4.235c-2.532,0.719-6.002-0.068-9.586,0.223c-0.913,0.722-0.913,2.356-1.671,3.232
			c0.881,1.447,2.213,2.436,3.343,3.565c0.56,0.561,1.085,1.197,1.672,1.785c1.243,1.242,2.808,2.741,2.453,5.684
			c-0.269,2.221-1.935,3.716-3.345,5.126c-1.702,1.703-3.581,3.581-5.35,5.351c-0.969,0.968-1.933,2.076-2.786,2.562
			c-1.787,1.021-4.447,0.843-5.907,0.111c-1.442-0.723-2.5-2.188-3.678-3.344c-1.179-1.153-2.25-2.429-3.566-3.455
			c-1.131,0.543-2.471,0.874-3.455,1.561c-0.223,4.495,0.709,9.141-1.114,11.592c-0.895,1.201-2.152,1.778-3.455,2.229
			c-4.979,0-9.956,0-14.935,0c-1.129-0.433-2.348-0.903-3.121-1.782c-0.493-0.561-1.126-1.614-1.338-2.453
			c-0.692-2.743,0.281-6.199-0.111-9.474c-0.785-0.886-2.34-1.003-3.344-1.672c-1.296,0.828-2.38,2.143-3.566,3.344
			c-1.806,1.832-3.583,4.549-7.355,4.125c-2.219-0.25-3.598-1.814-5.127-3.344c-1.761-1.763-3.563-3.563-5.35-5.351
			c-1.546-1.547-3.759-3.427-3.344-6.687c0.104-0.812,0.456-1.51,0.779-2.118c1.537-2.889,4.731-4.392,6.688-7.244
			c-0.647-0.987-0.843-2.427-1.561-3.344c-3.577-0.315-7.104,0.528-9.696-0.223c-2.061-0.598-3.463-2.235-4.124-4.235
			c0-5.053,0-10.105,0-15.157c0.407-1.066,0.966-2.229,1.672-2.897c2.529-2.402,7.205-1.34,12.148-1.561
			c0.692-1.018,0.987-2.432,1.561-3.566c-1.309-1.236-2.313-2.416-3.567-3.679c-1.64-1.653-3.622-2.933-3.9-5.685
			c-0.327-3.239,1.799-4.95,3.344-6.464c1.573-1.541,3.818-3.792,5.35-5.35c0.879-0.895,1.779-1.927,2.897-2.563
			c1.863-1.062,4.699-0.878,6.241,0.111c1.101,0.705,2.246,2.024,3.456,3.232c0.684,0.684,2.541,3.163,3.454,3.231
			c0.424,0.032,1.146-0.459,1.672-0.669c0.633-0.251,1.235-0.409,1.672-0.779c0.214-5.096-0.858-9.731,1.671-12.261
			C47.473,9.06,48.72,8.48,49.612,8.148z M49.054,40.135c-1.904,1.003-3.482,2.107-4.793,3.455c-2.644,2.72-4.8,6.381-5.126,11.257
			c-0.331,4.927,1.255,8.814,3.119,11.591c1.761,2.62,4.5,4.832,7.357,6.13c11.227,5.103,21.915-2.064,24.742-10.699
			c0.143-0.439,0.354-0.957,0.445-1.338c1.249-5.182-0.286-10.674-2.229-13.819c-3.092-5.009-9.05-9.256-17.053-8.472
			C52.879,38.5,50.954,39.134,49.054,40.135z"/>
		<path fill-rule="evenodd" clip-rule="evenodd" d="M55.518,44.259c6.309-0.742,10.658,2.581,12.595,6.687
			c1.743,3.697,1.193,8.907-0.78,11.927c-2.449,3.742-8.4,6.756-14.377,4.68c-2.311-0.801-4.361-2.646-5.685-4.569
			c-1.461-2.122-2.384-4.849-2.118-8.136c0.134-1.652,0.798-3.147,1.227-4.013c1.126-2.274,2.716-3.927,5.126-5.238
			C52.644,44.977,53.776,44.464,55.518,44.259z"/>
	</g>
</g>
</svg>
