<?xml version="1.0" encoding="utf-8"?>
<!-- Generator: Adobe Illustrator 15.0.0, SVG Export Plug-In . SVG Version: 6.00 Build 0)  -->
<!DOCTYPE svg PUBLIC "-//W3C//DTD SVG 1.1//EN" "http://www.w3.org/Graphics/SVG/1.1/DTD/svg11.dtd">
<svg version="1.1" id="Capa_1" xmlns="http://www.w3.org/2000/svg" xmlns:xlink="http://www.w3.org/1999/xlink" x="0px" y="0px"
	 width="113.387px" height="113.386px" viewBox="0 0 113.387 113.386" enable-background="new 0 0 113.387 113.386"
	 xml:space="preserve">
<g id="tTzuzv_1_">
	<g>
		<path fill-rule="evenodd" clip-rule="evenodd" d="M25.571,96.704c2.405-0.491,5.068,0.218,7.25-0.26
			c1.771-0.387,3.877-2.247,4.53-4.013c1.248-3.372-0.257-6.93-2.719-8.414c-0.318-0.19-1.26-0.662-1.683-0.776
			c-2.068-0.556-4.66,0.359-7.379-0.389c-0.366-0.915-0.38-2.485,0.13-3.235c2.342-0.457,4.485,0.17,6.473-0.129
			c1.084-0.164,2.445-0.88,3.236-1.555c2.486-2.123,3.189-6.497,1.035-9.319c-0.286-0.375-0.727-0.921-1.035-1.166
			c-0.959-0.757-2.205-0.984-3.366-1.553c-2.123-0.078-4.562,0.161-6.473-0.13c-0.322-0.875-0.242-2.48,0-3.235
			c4.114-0.313,7.43,0.319,9.839-1.554c0.504-0.393,0.863-1.135,1.293-1.812c0.468-0.733,1.163-2.1,1.166-3.495
			c0.002-0.572-0.235-0.854-0.389-1.424c-0.135-0.5-0.107-1.041-0.259-1.424c-0.491-1.246-1.608-2.116-2.459-2.978
			c-0.736-0.127-1.314-0.412-1.812-0.776c-2.094-0.556-5.516,0.032-7.379-0.389c-0.275-0.734-0.32-2.354,0-3.106
			c2.619-0.736,5.13,0.148,7.25-0.389c1.303-0.33,2.547-1.312,3.365-2.33c0.784-0.977,0.879-1.116,1.294-2.589
			c0.336-1.19,0.428-1.635,0.13-2.978c-0.544-2.455-1.887-4.084-4.014-5.049c-2.055-0.736-5.575-0.447-7.896-0.518
			c-0.503-0.916-0.503-2.449,0-3.365c1.797-0.347,3.893,0.022,5.695-0.129c0.546-0.047,1.363-0.119,1.812-0.26
			c0.943-0.294,1.358-1.096,2.201-1.164c0.717-0.793,1.293-1.727,1.941-2.59c1.192-3.506-0.308-7.112-2.719-8.543
			c-0.526-0.294-1.278-0.361-1.683-0.776c-2.037-0.596-5.391,0.126-7.379-0.519c0.105-1.325,0.693-2.63,1.425-3.495
			c0.848-1.002,2.387-2.117,4.143-2.329c2.989-0.362,7.271,0,11.391,0c13.835,0,26.311,0,40.388,0c3.201,0,7.168-0.449,9.319,0.258
			c1.498,0.493,3.866,2.524,4.402,4.531c0.344,1.29,0.129,3.195,0.129,5.049c0,20.018,0,39.097,0,58.897c0,5.114,0,10.902,0,16.052
			c0,1.939,0.205,3.924-0.129,5.178c-0.422,1.581-2.03,3.139-3.495,4.014c-0.323,0.192-0.567,0.443-0.776,0.518
			c-1.791,0.629-4.842,0.178-7.638,0.259c-12.277,0.358-25.88,0-38.316,0c-2.597,0-5.226,0-7.768,0
			c-2.997,0-7.015,0.449-9.061-0.519C27.487,101.797,25.367,99.777,25.571,96.704z M51.59,35.733
			c9.961,0.235,19.874,0.13,30.16,0.13c3.31,0,7.523,0.385,8.803-1.294c0.043-0.057,0.284-0.543,0.389-0.776
			c0.726-1.624,0.259-6.528,0.259-8.285c0-2.388,0.506-7.699-0.259-9.45c-1.05-2.402-4.4-2.071-8.025-2.071
			c-8.543,0-16.403,0-25.113,0c-3.858,0-7.055-0.454-8.024,2.201c-0.748,2.043-0.26,5.6-0.26,8.803c0,3.249-0.091,6.479,0.129,8.932
			C50.245,34.576,50.891,35.182,51.59,35.733z"/>
		<path fill-rule="evenodd" clip-rule="evenodd" d="M19.746,18.128c1.185-0.16,4.156-0.129,6.73-0.129
			c2.37,0,5.032-0.211,6.214,0.389c1.1,0.558,1.781,1.975,1.812,2.977c0.027,0.875-0.457,2.067-1.165,2.719
			c-1.383,1.271-4.456,0.906-7.896,0.906c-2.255,0-5.042,0.302-6.473-0.13c-0.823-0.248-2.299-1.731-2.46-2.459
			C15.949,19.873,17.484,18.434,19.746,18.128z"/>
		<path fill-rule="evenodd" clip-rule="evenodd" d="M18.969,35.215c-0.023-0.11,0.05-0.122,0.129-0.129c4.229,0,8.457,0,12.687,0
			c1.307,0.786,2.564,1.42,2.719,3.106c0.118,1.295-0.751,3.075-2.201,3.625c-1.636,0.619-4.552,0.258-7.249,0.258
			c-3.61,0-7.524,0.454-8.413-2.2C15.806,37.391,17.237,36.012,18.969,35.215z"/>
		<path fill-rule="evenodd" clip-rule="evenodd" d="M19.487,52.303c1.301-0.231,4.299-0.13,6.99-0.13
			c2.485,0,5.188-0.187,6.344,0.518c2.455,1.497,1.973,5.245-0.519,6.214c-1.194,0.465-4.143,0.259-6.602,0.259
			c-2.219,0-5.102,0.36-6.731-0.13c0.145,0.044-0.891-0.42-1.036-0.518c-0.913-0.611-1.846-2.019-1.424-3.883
			C16.767,53.497,17.989,52.569,19.487,52.303z"/>
		<path fill-rule="evenodd" clip-rule="evenodd" d="M18.969,69.39c1.408-0.229,4.274-0.13,6.731-0.13c2.237,0,4.826-0.32,6.343,0.13
			c0.857,0.254,2.422,1.638,2.46,3.235c0.028,1.197-1.033,2.96-2.201,3.366c-1.371,0.477-4.414,0.13-7.119,0.13
			c-2.446,0-5.367,0.418-6.86-0.259c-1.179-0.534-2.326-2.224-1.813-4.272C16.781,70.501,17.671,70.142,18.969,69.39z"/>
		<path fill-rule="evenodd" clip-rule="evenodd" d="M19.487,86.477c1.339-0.238,4.34-0.129,7.12-0.129
			c2.415,0,5.191-0.219,6.343,0.518c0.932,0.596,1.503,1.847,1.554,2.718c0.061,1.061-0.607,2.548-1.425,3.107
			c-1.392,0.952-5.192,0.646-7.896,0.646c-3.084,0-6.342,0.214-7.638-0.906c-0.757-0.654-1.377-2.138-0.905-3.754
			C16.954,87.593,17.97,86.747,19.487,86.477z"/>
		<g>
		</g>
	</g>
</g>
</svg>
