<?xml version="1.0" encoding="utf-8"?>
<!-- Generator: Adobe Illustrator 15.0.0, SVG Export Plug-In . SVG Version: 6.00 Build 0)  -->
<!DOCTYPE svg PUBLIC "-//W3C//DTD SVG 1.1//EN" "http://www.w3.org/Graphics/SVG/1.1/DTD/svg11.dtd">
<svg version="1.1" id="Capa_1" xmlns="http://www.w3.org/2000/svg" xmlns:xlink="http://www.w3.org/1999/xlink" x="0px" y="0px"
	 width="113.387px" height="113.386px" viewBox="0 0 113.387 113.386" enable-background="new 0 0 113.387 113.386"
	 xml:space="preserve">
<g>
	<g>
		<path fill-rule="evenodd" clip-rule="evenodd" d="M72.928,18.619c11.553-3.356,21.012,2.901,23.34,11.669
			c0.419,1.579-0.236,3.499,0.449,5.386c1.311,3.611,5.425,5.187,6.284,9.875c0.943,5.154-0.804,11.075-3.591,14.363
			c-5.217,6.15-13.488,5.542-26.482,5.386c0-2.244,0-4.488,0-6.732c9.898,0.023,21.215,1.466,23.34-6.284
			c0.786-7.219-2.109-10.757-7.182-12.119c3.514-9.403-3.533-17.341-12.567-15.709c-2.707,0.489-3.981,3.037-6.283,3.142
			c-2.711-13.209-26.31-12.197-26.931,2.244c-2.394,0-4.787,0-7.181,0c1.881-10.859,10.757-19.823,23.788-18.402
			C65.756,12.074,69.249,15.034,72.928,18.619z"/>
		<path fill-rule="evenodd" clip-rule="evenodd" d="M34.777,31.635C47.494,30.239,66.2,33.2,69.786,41.51
			c1.992,4.616,0.898,16.007,0.898,22.89c0,8.652,1.306,17.636-0.898,22.891c-3.202,7.636-17.587,10.622-26.93,10.772
			c-12.796,0.205-27.014-3.077-29.624-11.222c-1.574-4.911-0.449-15.652-0.449-22.891c0-6.557-1.746-16.539,0.449-22.441
			C15.313,35.915,26.37,32.558,34.777,31.635z M18.17,45.998c0.319,4.534,11.437,7.965,18.852,8.528
			c9.98,0.757,27.839-2.019,27.828-8.977c-0.008-4.23-10.013-7.878-16.159-8.528c-4.662-0.493-13.087,0.152-15.26,0.449
			C28.492,38.143,17.778,40.426,18.17,45.998z M18.17,59.462c1.168,4.118,10.641,7.491,18.852,8.08
			c8.756,0.627,16.252-0.657,21.544-3.143c3.789-1.778,7.425-4.125,6.284-8.977c-7.162,2.495-14.687,4.959-23.34,4.937
			c-8.574-0.021-17.088-2.695-23.34-4.937C18.48,56.198,17.787,58.112,18.17,59.462z M25.801,78.314
			c6.152,2.409,13.198,2.817,20.647,2.244C55.956,79.826,65.91,76.28,64.85,68.44c-9.393,3.642-20.107,5.784-30.97,4.488
			c-5.75-0.687-11.145-3.258-15.709-4.488C17.378,74.144,21.1,76.473,25.801,78.314z M35.226,92.228
			c12.757,1.234,29.699-1.654,29.624-10.772c-7.112,2.611-14.62,4.959-23.34,4.938c-8.729-0.022-17.076-2.576-23.34-4.938
			C17.594,88.263,28.16,91.544,35.226,92.228z"/>
		<g>
		</g>
	</g>
</g>
</svg>
