<?xml version="1.0" encoding="utf-8"?>
<!-- Generator: Adobe Illustrator 15.0.0, SVG Export Plug-In . SVG Version: 6.00 Build 0)  -->
<!DOCTYPE svg PUBLIC "-//W3C//DTD SVG 1.1//EN" "http://www.w3.org/Graphics/SVG/1.1/DTD/svg11.dtd">
<svg version="1.1" id="Capa_1" xmlns="http://www.w3.org/2000/svg" xmlns:xlink="http://www.w3.org/1999/xlink" x="0px" y="0px"
	 width="113.387px" height="113.386px" viewBox="0 0 113.387 113.386" enable-background="new 0 0 113.387 113.386"
	 xml:space="preserve">
<g>
	<g id="NHGqZe_6_">
		<g>
			<path fill="#000100" d="M49.609,40.235c0.728,0.784,2.515,0.505,3.115,1.416c0.094,3.114-0.651,5.391-1.698,7.363
				c-0.379,0.473-1.605,0.094-1.982,0.565c-1.262,3.873-3.416,7.271-6.514,9.63c-1.749,1.33-3.13,2.728-5.948,2.832
				c-6.368,0.239-11.42-6.91-13.027-12.462c-0.558-0.385-1.616-0.27-2.265-0.565c-0.889-2.037-1.489-4.364-1.417-7.363
				c0.479-0.846,1.879-0.765,2.833-1.133c-1.423-10.784,4.299-18.009,12.745-18.41C43.985,21.704,51.437,28.298,49.609,40.235z
				 M34.883,41.369c-0.715-2.418-3.353-3.721-6.515-2.832c-1.416,1.239-2.781,2.504-2.832,4.53
				c-0.155,6.051,4.114,14.906,8.496,16.71c1.417,0,2.833,0,4.249,0c3.432-2.306,7.306-7.406,8.212-12.744
				c0.379-2.233,0.855-6.442-1.698-7.647c-3.596,1.315-6.213,5.114-10.763,4.531C34.073,42.824,34.99,42.608,34.883,41.369z"/>
			<path fill="#000100" d="M99.737,56.093c-7.098,4.858-23.456,4.755-30.587,0c1.766-2.288,1.869-4.514,0.85-7.646
				c-0.373-1.143-1.251-2.384-1.416-3.398c-1.162-7.08,1.363-11.73,4.53-15.008c2.69-2.788,5.686-4.987,10.763-5.101
				c9.898-0.22,17.683,7.762,16.708,18.41c-0.26,2.847-2.537,6.196-2.265,9.062C98.468,53.985,99.367,54.088,99.737,56.093z
				 M87.558,38.252c-4.291-3.792-5.697,5.195-13.312,3.398c-0.654-0.382-0.938-1.14-2.266-0.851
				c-0.238,1.083-0.37,2.275-0.284,3.683c0.758,1.129,1.87,1.908,3.116,2.55c1.064,5.516,6.953,14.441,13.594,10.478
				c0.386-0.229,2.114-2.03,2.832-2.832c0.824-0.922,1.196-1.903,1.98-3.399c0.779-1.479,1.547-2.207,1.699-4.246
				c2.495-0.512,5.005-5.158,1.7-6.515c-1.285,0.414-1.368,2.031-2.833,2.266c-1.882-3.594-3.449-7.502-7.646-8.778
				c-0.236,0.328-0.372,0.758-0.282,1.416c0.69,0.819,2.119,0.902,2.266,2.267l-0.425,0.142L87.558,38.252z"/>
			<path fill="#000100" d="M72.547,63.177c-1.206,1.652-2.501,5.168-1.132,7.646c1.661-0.699,2.637-2.083,4.248-2.832
				c1.66,1.549,2.826,3.593,3.965,5.664c1.894,1.223,2.605,3.624,4.814,4.53c3.823-2.312,5.718-6.556,8.495-9.913
				c2.242,0.023,2.737,1.794,4.248,2.551c2.613-1.703,0.189-6.067-0.851-7.646l0.482-0.198l0.367-0.369
				c3.291,0.938,6.879,1.499,9.062,3.964c3.353,3.787,3.846,14.312-1.981,15.579c-4.131,0.896-11.354,0-16.144,0
				c-5.633,0-10.993,0-15.858,0c-2.327-5.889-2.932-13.495-9.062-15.579c1.78-2.656,5.823-3.051,9.062-4.245l-0.102,0.504
				L72.547,63.177z"/>
			<path fill="#000100" d="M40.546,67.141c0.089,1.144-1.228,1.98-1.416,3.398c-0.161,1.204,0.479,2.767,0.566,4.248
				c0.164,2.821-0.549,5.888,0.565,7.929c1.792-2.368,2.393-5.548,3.398-8.497c1.006-2.945,2.217-5.95,2.832-9.061
				c4.29,1.445,8.324,3.192,12.743,5.096c1.278,0.552,3.146,0.913,3.965,1.701c1.466,1.411,2.2,5.112,2.832,7.079
				c1.178,3.668,4.049,10.672-1.698,11.896c-0.28,0.06-1.204,0.283-1.134,0.281c-10.135,0.098-28.031-0.281-40.78-0.281
				c-5.18,0-10.217,0.695-13.311,0.281c-6.051-0.808-4.226-6.937-2.831-11.327c0.5-1.571,1.153-3.678,1.981-6.796
				c4.596-3.809,11.64-5.169,17.276-7.93c0.229,0.054,0.283,0.283,0.566,0.281c1.58,5.973,3.558,11.548,5.664,16.992
				c1.306-0.7,0.99-3.71,1.133-5.663c0.283-3.91,0.636-7.657-1.133-9.913l0.425,0.143l0.142-0.426c2.794,0.935,5.105,0.828,7.931,0
				l-0.142,0.426L40.546,67.141z"/>
			<g>
				<path fill="#000100" stroke="#000100" stroke-width="0.6333" stroke-linecap="round" d="M88.974,39.385
					c-0.329-0.562-0.681-1.151-1.275-1.557"/>
				<path fill="#000100" stroke="#000100" stroke-width="0.9177" stroke-linecap="round" d="M95.819,62.279
					c0.558,0.246,0.758,0.437,1,0.699"/>
				<path fill="#000100" stroke="#000100" stroke-width="0.8073" stroke-linecap="round" d="M73.398,62.328
					c-0.322,0.032-0.824,0.302-1.234,0.504"/>
				<path fill="#000100" stroke="#000100" stroke-width="0.4905" stroke-linecap="round" d="M31.625,66.434
					c0.079,0.013,0.16,0.024,0.239,0.037c0.12,0.107,0.207,0.316,0.327,0.526"/>
				<path fill="#000100" stroke="#000100" stroke-width="0.6333" stroke-linecap="round" d="M40.121,66.999
					c0.217-0.127,0.347-0.252,0.472-0.377"/>
			</g>
		</g>
	</g>
</g>
</svg>
