<?xml version="1.0" encoding="utf-8"?>
<!-- Generator: Adobe Illustrator 15.0.0, SVG Export Plug-In . SVG Version: 6.00 Build 0)  -->
<!DOCTYPE svg PUBLIC "-//W3C//DTD SVG 1.1//EN" "http://www.w3.org/Graphics/SVG/1.1/DTD/svg11.dtd">
<svg version="1.1" id="Capa_1" xmlns="http://www.w3.org/2000/svg" xmlns:xlink="http://www.w3.org/1999/xlink" x="0px" y="0px"
	 width="113.387px" height="113.386px" viewBox="0 0 113.387 113.386" enable-background="new 0 0 113.387 113.386"
	 xml:space="preserve">
<g>
	<g>
		<path d="M71.995,108.486c0-9.354-7.582-16.938-16.937-16.938c-9.354-0.002-16.938,7.582-16.938,16.938
			c0,0.391,0.018,0.773,0.045,1.157c11.262,0,22.524,0,33.787,0C71.975,109.259,71.995,108.875,71.995,108.486z"/>
		<path d="M22.979,97.121"/>
		<path d="M21.68,100.785c0,2.479,0,4.963,0,7.441c0.658,0.521,1.338,1.025,2.127,1.417c3.244,0,6.486,0,9.73,0
			c-0.021-0.384-0.031-0.771-0.031-1.157c0-11.902,9.647-21.55,21.553-21.55c11.9,0,21.549,9.646,21.549,21.55
			c0,0.387-0.012,0.773-0.028,1.157c2.887,0,5.772,0,8.662,0c0.918-0.709,2.016-0.627,2.481-1.651
			c0.457-1.011,0.43-2.854,0.234-4.373c-0.07-0.563-0.476-1.041-0.59-1.652c-0.091-0.484,0.062-1.021,0-1.537
			c-0.043-0.355-0.267-0.684-0.354-1.062c-0.104-0.445-0.029-0.931-0.119-1.3c-0.137-0.554-0.539-1.024-0.709-1.536
			c-0.367-1.123-0.246-2.381-1.062-3.072c-0.052-1.145-0.521-2.127-0.947-2.953c-0.703-1.364-1.176-2.922-2.125-4.252
			c-0.27-0.94-0.842-1.735-1.299-2.6c-0.545-1.02-1.553-1.99-2.127-3.07c-1.103-2.076-3.336-3.562-4.844-5.436
			c-0.8-0.145-1.207-0.678-1.773-1.062c-0.533-0.364-1.264-0.942-1.891-0.944c-0.988-0.007-1.673,1.112-2.361,1.771
			c-0.232,0.221-0.443,0.598-0.59,0.709c-0.656,0.488-1.34,0.633-1.894,1.062c-0.141,0.109-0.116,0.379-0.233,0.473
			c-0.373,0.291-1.15,0.193-1.299,0.828c-1.525,0.484-2.804,1.217-4.138,1.891c-0.832-0.289-1.479,0.365-2.36,0.473
			c-1.013,0.123-3.002,0.018-4.49-0.118c-2.07-0.188-3.9-1.228-5.551-1.418c-1.261-1.188-2.604-1.562-4.021-2.72
			c-0.658-0.536-2.574-2.895-3.662-2.95c-0.467-0.024-1.496,0.553-2.125,0.944c-1.11,0.687-2.27,2.054-3.426,2.951
			c-0.92,0.713-1.945,2.238-2.836,3.311c-0.312,0.369-0.609,0.604-0.83,0.943c-0.141,0.224-0.092,0.512-0.234,0.709
			c-0.321,0.447-0.784,0.918-1.184,1.535c-0.238,0.373-0.369,0.777-0.59,1.184c-0.558,1.027-1.318,2.205-1.892,3.426
			c-0.192,0.411-0.268,0.882-0.473,1.299c-0.19,0.396-0.559,0.684-0.707,1.062c-0.227,0.58-0.25,1.264-0.473,1.894
			c-0.199,0.56-0.646,1.099-0.826,1.651"/>
	</g>
	<g>
		<g id="vtX1m3_8_">
			<g>
				<path fill="#1D1E1C" stroke="#000000" stroke-width="0.3138" stroke-miterlimit="10" d="M51.493,2.644
					c2.098-0.522,6.379-0.522,8.477,0C57.141,2.644,54.321,2.644,51.493,2.644z"/>
				<path fill="#1D1E1C" stroke="#000000" stroke-width="0.3138" stroke-miterlimit="10" d="M52.122,20.847
					c1.573-0.522,5.33-0.522,6.903,0C56.725,20.847,54.425,20.847,52.122,20.847z"/>
				<path fill="#1D1E1C" stroke="#000000" stroke-width="0.3138" stroke-miterlimit="10" d="M87.587,21.788
					c0.52,0.645,0.52,3.438,0,4.08C87.587,24.508,87.587,23.149,87.587,21.788z"/>
				<path fill="#1D1E1C" stroke="#000000" stroke-width="0.3138" stroke-miterlimit="10" d="M61.538,24.614c0.731,0,1.463,0,2.196,0
					c0,0.627,0,1.254,0,1.883c-0.088,1.064,0.242,2.544-0.315,3.137c-1.672,0-3.349,0-5.021,0c0-0.207,0-0.416,0-0.627
					c1.033,0.643,3.181,0.17,4.709,0.314c0.615-0.847,0.185-2.742,0.312-4.08C63.471,24.352,61.485,25.501,61.538,24.614z"/>
				<path fill="#1D1E1C" stroke="#000000" stroke-width="0.3138" stroke-miterlimit="10" d="M58.085,25.868c0.102,0,0.209,0,0.313,0
					c0,1.047,0,2.094,0,3.139c0,0.211,0,0.42,0,0.627c-0.069,0.245-0.008,0.621-0.313,0.63c0-0.21,0-0.419,0-0.63
					c0-0.207,0-0.416,0-0.627C58.085,27.961,58.085,26.915,58.085,25.868z"/>
				<path fill="#1D1E1C" stroke="#000000" stroke-width="0.3138" stroke-miterlimit="10" d="M47.1,26.81c0.104,0,0.207,0,0.312,0
					c0,0.313,0,0.628,0,0.94c-0.209,1.363-0.013,2.314,1.571,1.883c0,0.105,0,0.211,0,0.315c-0.106,0-0.211,0-0.313,0
					c-0.556,0.071-1.57-0.316-1.258,0.628c-0.242-0.069-0.361-0.264-0.312-0.628c0-0.209,0-0.419,0-0.628c0-0.104,0-0.209,0-0.312
					C47.1,28.274,47.1,27.542,47.1,26.81z"/>
				<path fill="#1D1E1C" stroke="#000000" stroke-width="0.3138" stroke-miterlimit="10" d="M47.1,29.321c0,0.209,0,0.419,0,0.628
					c-0.731,0-1.465,0-2.197,0c-0.418,0-0.836,0-1.256,0C44.173,29.113,46.542,30.123,47.1,29.321z"/>
				<path fill="#1D1E1C" stroke="#000000" stroke-width="0.3138" stroke-miterlimit="10" d="M48.669,29.949
					c-1.23,0.128-0.955,1.765-0.941,3.138c-0.104,0-0.211,0-0.315,0c0-0.836,0-1.674,0-2.51
					C47.098,29.632,48.114,30.02,48.669,29.949z"/>
				<path fill="#1D1E1C" stroke="#000000" stroke-width="0.3138" stroke-miterlimit="10" d="M53.061,31.517c0-0.522,0-1.045,0-1.568
					c1.572,0,3.142,0,4.709,0c0,1.464,0,2.929,0,4.394c-1.567,0-3.137,0-4.709,0C53.061,33.401,53.061,32.459,53.061,31.517z"/>
				<path fill="#1D1E1C" stroke="#000000" stroke-width="0.3138" stroke-miterlimit="10" d="M63.735,30.263
					c0.14-0.519,2.369-0.519,2.513,0c-0.631,0-1.261,0-1.886,0c-0.854-0.226,0.224,1.479-0.627,1.254
					C63.735,31.1,63.735,30.68,63.735,30.263z"/>
				<path fill="#1D1E1C" stroke="#000000" stroke-width="0.3138" stroke-miterlimit="10" d="M44.276,30.263c0.209,0,0.416,0,0.627,0
					c0.834,0.003,1.791-0.12,2.197,0.313c0,1.359,0,2.72,0,4.079c-0.242,0.071-0.621,0.01-0.627,0.313c-0.525,0-1.049,0-1.57,0
					c-0.731,0-1.465,0-2.196,0c0.549-1.269-0.65-2.414-0.312-4.394C42.944,30.395,44.237,30.956,44.276,30.263z"/>
				<path fill="#1D1E1C" stroke="#000000" stroke-width="0.3138" stroke-miterlimit="10" d="M78.173,30.577
					c0.52,1.056,0.52,4.279,0,5.334C78.173,34.133,78.173,32.356,78.173,30.577z"/>
				<path fill="#1D1E1C" stroke="#000000" stroke-width="0.3138" stroke-miterlimit="10" d="M41.762,31.204c0.105,0,0.209,0,0.316,0
					c0,0.524,0,1.047,0,1.568c0,0.524,0,1.047,0,1.57C41.362,33.907,41.962,32.158,41.762,31.204z"/>
				<path fill="#1D1E1C" stroke="#000000" stroke-width="0.3138" stroke-miterlimit="10" d="M43.02,35.596c0-0.104,0-0.208,0-0.312
					c0.627,0,1.256,0,1.883,0c0.732,0,1.466,0,2.197,0C46.356,36.005,44.284,35.397,43.02,35.596z"/>
				<path fill="#1D1E1C" stroke="#000000" stroke-width="0.3138" stroke-miterlimit="10" d="M49.608,40.933c1.05,0,2.095,0,3.142,0
					c0,0.104,0,0.21,0,0.313C51.796,41.049,50.048,41.649,49.608,40.933z"/>
				<path fill="#1D1E1C" stroke="#000000" stroke-width="0.3138" stroke-miterlimit="10" d="M58.085,41.247c0-0.104,0-0.209,0-0.313
					c1.149,0,2.301,0,3.453,0C61.001,41.651,59.141,41.048,58.085,41.247z"/>
				<path fill="#1D1E1C" stroke="#000000" stroke-width="0.3138" stroke-miterlimit="10" d="M53.378,41.247c1.356,0,2.719,0,4.08,0
					C56.813,41.768,54.02,41.768,53.378,41.247z"/>
				<path fill="#1D1E1C" stroke="#000000" stroke-width="0.3138" stroke-miterlimit="10" d="M29.212,51.918
					c0.098-0.736,0.496-1.179,0.312-2.197c0.666-0.133,0.152,3.605,0.312,5.021c0.518-0.005,0.178-0.87,0.629-0.941
					c-0.195,1.164,0.51,3.23-0.629,3.453C28.446,56.659,29.577,53.539,29.212,51.918z"/>
				<path fill="#1D1E1C" stroke="#000000" stroke-width="0.3138" stroke-miterlimit="10" d="M54.553,73.164
					c0.418,0,1.543-0.049,1.961-0.049c1.043,0.065,1.58-0.158,2.332,0.032c1.381,0.405-1.807,3.011-1.947,3.937
					c0.142,3.836,1.062,6.892,1.568,10.355c-1.16-0.37-2.33-0.471-2.33-0.471c0,0.029-1.295-0.139-1.295-0.139
					c-1.848-0.101-3.096,0.637-2.965-0.02c0.338-2.486,0.854-4.797,0.94-7.531c0.24-2.322,0.093-2.725-1.047-3.881
					c-0.805-1.673-1.524-1.494-1.625-2.234C51.206,72.964,53.251,73.164,54.553,73.164z"/>
				<path fill="#1D1E1C" stroke="#000000" stroke-width="0.3138" stroke-miterlimit="10" d="M23.559,27.75
					c0.584,0.048,0.193,1.064,0.629,1.258c0.547,1.439,0.984,2.99,2.199,3.764c1.156,2.715,3.656,4.086,5.648,5.963
					c-0.138,0.599-0.679,0.79-0.63,1.57c-0.104,0-0.209,0-0.311,0c0.039-0.584,0.203-1.047,0.625-1.256
					C28.468,35.815,24.661,33.139,23.559,27.75z"/>
				<path fill="#1D1E1C" stroke="#000000" stroke-width="0.3138" stroke-miterlimit="10" d="M80.053,37.794
					c1.83-2.145,3.99-3.96,5.65-6.277C84.364,34.155,82.11,35.874,80.053,37.794z"/>
				<path fill="#1D1E1C" stroke="#000000" stroke-width="0.3138" stroke-miterlimit="10" d="M83.192,13
					c1.603,1.224,2.724,2.929,3.451,5.022C85.528,16.315,84.555,14.463,83.192,13z"/>
				<path fill="#1D1E1C" stroke="#000000" stroke-width="0.3138" stroke-miterlimit="10" d="M78.798,8.92
					c1.58,1.141,3.26,2.183,4.395,3.766c-1.461-1.154-2.771-2.459-4.395-3.451C78.798,9.129,78.798,9.026,78.798,8.92z"/>
				<path fill="#1D1E1C" stroke="#000000" stroke-width="0.3138" stroke-miterlimit="10" d="M42.706,4.213
					c0.85-0.615,2.082-0.846,3.453-0.941C45.245,3.824,43.944,3.987,42.706,4.213z"/>
				<path fill="#1D1E1C" stroke="#000000" stroke-width="0.3138" stroke-miterlimit="10" d="M30.466,10.491
					c1.389-1.959,3.758-2.938,5.965-4.08C34.612,7.942,32.102,8.782,30.466,10.491z"/>
				<path fill="#1D1E1C" stroke="#000000" stroke-width="0.3138" stroke-miterlimit="10" d="M46.159,3.272
					c1.584-0.404,3.196-0.779,5.334-0.628c2.827,0,5.647,0,8.477,0c7.936,0.433,13.799,2.937,18.828,6.276c0,0.105,0,0.209,0,0.314
					c1.623,0.992,2.934,2.297,4.395,3.451c0,0.105,0,0.209,0,0.313c1.363,1.464,2.336,3.315,3.451,5.022
					c0.385,1.186,1.053,2.088,0.943,3.766c0,1.361,0,2.721,0,4.08c-0.068,2.443-1.006,4.016-1.883,5.649
					c-1.66,2.317-3.82,4.133-5.65,6.277c-0.104,0-0.209,0-0.312,0c11.684-13.181-3.244-27.036-19.459-28.56
					c-14.369-1.351-31.83,4.777-33.271,16.947c-0.213,1.792,0.146,5.197,1.256,7.533c1.256,2.641,5.854,5.629,3.14,6.59
					c-0.05-0.78,0.491-0.972,0.629-1.57c-1.992-1.877-4.492-3.248-5.648-5.963c-0.928-1.059-1.254-2.721-2.199-3.764
					c-0.436-0.193-0.045-1.21-0.629-1.258c0-0.102,0-0.209,0-0.312c-1.451-8.197,2.355-13.723,6.906-16.947
					c1.637-1.709,4.146-2.549,5.965-4.08c2.016-0.808,3.793-1.855,6.275-2.197C43.944,3.987,45.245,3.824,46.159,3.272z"/>
				<path fill="#1D1E1C" stroke="#000000" stroke-width="0.3138" stroke-miterlimit="10" d="M26.387,32.772
					c-1.215-0.773-1.652-2.324-2.199-3.764C25.134,30.051,25.46,31.713,26.387,32.772z"/>
				<path fill="#1D1E1C" stroke="#000000" stroke-width="0.3138" stroke-miterlimit="10" d="M43.647,22.417
					c-1.608,0.271-3.071,0.693-4.08,1.568c-0.506-0.088-0.541,0.297-0.938,0.315c-0.978,0.278-1.465,1.048-2.515,1.254
					c-1.1,0.888-2.215,1.761-2.823,3.139c0,0.105,0,0.21,0,0.315c-1.113,1.34-0.709,5.706-0.314,7.531
					c-0.164,1.316,0.549,1.754,0.629,2.824c0.916,1.764,0.984,2.613-1.256,3.139c0.469,0.676,0.887-0.344,1.256,0.627
					c0.193,0.279,0.381,0.562,0,0.628c-0.278-0.138-0.562-0.274-0.629-0.628c-0.658,0.088,0.457,0.838-0.311,1.256
					c-0.24-0.493-1-0.469-0.943-1.256c-0.576,0.503-0.904,1.853,0.314,1.883c0,0.859-1.31,2.016-0.314,2.825
					c0.297,1.417-0.365,2.442-0.625,3.767c-0.258-0.06-0.313-0.314-0.631-0.314c0.441,0.899-0.975,1.714,0.313,1.57
					c0,0.104,0,0.208,0,0.313c-0.307,0.009-0.243,0.384-0.313,0.628c-0.451,0.071-0.111,0.937-0.629,0.941
					c-0.16-1.416,0.354-5.154-0.312-5.021c0.185,1.019-0.215,1.461-0.312,2.197c-0.107,0-0.211,0-0.314,0
					c-0.254-1.089,0.468-1.207,0.314-2.197c0.195-3.465,1.397-5.922,1.885-9.103c0-0.104,0-0.21,0-0.313c0.103,0,0.205,0,0.312,0
					c2.715-0.961-1.884-3.949-3.14-6.59c-1.108-2.336-1.469-5.741-1.256-7.533c1.439-12.17,18.9-18.298,33.271-16.947
					c16.215,1.523,31.143,15.379,19.459,28.56c-0.57,0.353-1.146,2.298,0,2.511c0,0.104,0,0.209,0,0.313
					c0.229,1.76,0.709,3.263,0.938,5.022c0,1.359,0,2.72,0,4.08c-0.305-0.008-0.242-0.385-0.311-0.628
					c-0.572,0.371-0.248,1.637-0.629,2.196c-1.421-0.967-1.316-2.953-0.314-4.08c-1.25,1.24-2.145-1.031-2.197-2.824
					c0.281,0.66,0.869,1.014,1.256,1.569c0.683,0.053,0.144-1.113,0.312-1.569c0.67-0.146,0.6,0.449,0.629,0.942
					c0.781-0.29,0.76-2.105-0.629-1.884c0.104-0.621,0.973-2.242-0.625-1.883c-0.131-0.757,0.572-0.683,0.312-1.57
					c-0.139-0.465-0.399,0.125-0.94,0c0-0.312,0-0.627,0-0.941c0.088-0.649,1.242-3.072,0-2.195c-0.104,0-0.209,0-0.314,0
					c-0.096-0.725,0.908-0.35,0.943-0.943c0.52-1.055,0.52-4.278,0-5.334c0.055-0.268-0.125-0.296-0.316-0.313
					c0-0.105,0-0.21,0-0.314c-0.912-3.479-3.799-4.986-6.903-6.277c-2.382-1.071-4.931-1.974-8.158-2.196
					c-0.84-0.627-2.771-0.162-3.769-0.628c-1.573-0.522-5.33-0.522-6.903,0c-0.498,0.026-1.197-0.15-1.254,0.313
					C48.024,21.143,46.255,22.198,43.647,22.417z"/>
				<path fill="#1D1E1C" stroke="#000000" stroke-width="0.3138" stroke-miterlimit="10" d="M33.29,28.693
					c0.608-1.378,1.725-2.251,2.823-3.139C35.235,26.663,34.229,27.647,33.29,28.693z"/>
				<path fill="#1D1E1C" stroke="#000000" stroke-width="0.3138" stroke-miterlimit="10" d="M33.29,29.008
					c-0.267,0.781-0.41,1.68-0.314,2.823c0,1.046,0,2.095,0,3.139c-0.1,0.729,0.053,1.206,0.314,1.569c-0.104,0-0.207,0-0.314,0
					C32.581,34.714,32.177,30.348,33.29,29.008z"/>
				<path fill="#1D1E1C" stroke="#000000" stroke-width="0.3138" stroke-miterlimit="10" d="M33.604,39.364
					c0.812,0.969,2.074,1.482,2.826,2.51c-1.68-1.074-1.447,1.141-2.826,1.256c-0.369-0.971-0.787,0.049-1.256-0.627
					C34.589,41.977,34.52,41.127,33.604,39.364z"/>
				<path fill="#1D1E1C" stroke="#000000" stroke-width="0.3138" stroke-miterlimit="10" d="M31.721,47.837
					c-0.994-0.81,0.314-1.966,0.314-2.825c-1.22-0.03-0.892-1.38-0.314-1.883c-0.057,0.787,0.703,0.763,0.943,1.256
					c0.768-0.418-0.349-1.168,0.311-1.256c0.066,0.354,0.351,0.49,0.629,0.628C33.005,45.147,32.944,47.073,31.721,47.837z"/>
				<path fill="#1D1E1C" stroke="#000000" stroke-width="0.3138" stroke-miterlimit="10" d="M50.868,21.161
					c0.057-0.464,0.756-0.287,1.254-0.313c2.303,0,4.604,0,6.903,0c0.996,0.466,2.929,0.001,3.769,0.628
					C58.993,21.192,55.03,21.075,50.868,21.161z"/>
				<path fill="#1D1E1C" stroke="#000000" stroke-width="0.3138" stroke-miterlimit="10" d="M70.952,23.671
					c3.104,1.291,5.991,2.798,6.903,6.277C76.546,26.866,73.692,25.325,70.952,23.671z"/>
				<path fill="#1D1E1C" stroke="#000000" stroke-width="0.3138" stroke-miterlimit="10" d="M77.856,30.263
					c0.191,0.018,0.371,0.046,0.316,0.313c0,1.779,0,3.557,0,5.334c-0.035,0.594-1.039,0.219-0.943,0.943
					c-2.271,0.865-4.42,1.857-6.903,2.51c-1.238,0.227-2.541,0.39-3.453,0.941c-2.056-0.066-3.547,0.429-5.334,0.628
					c-1.152,0-2.304,0-3.453,0c-1.777,0-3.56,0-5.336,0c-1.047,0-2.092,0-3.142,0c-1.1-0.154-2.041-0.468-3.448-0.314
					c-0.771-0.485-2.043-0.466-3.14-0.628c-3.408-0.984-6.86-1.926-9.729-3.451c-0.263-0.363-0.414-0.842-0.314-1.569
					c0.367,0.05,0.267,0.572,0.314,0.94c10.508,6.43,34.026,6.311,44.565,0C77.856,34.028,77.856,32.145,77.856,30.263z"/>
				<path fill="#1D1E1C" stroke="#000000" stroke-width="0.3138" stroke-miterlimit="10" d="M33.29,29.008c0-0.105,0-0.21,0-0.315
					c0.938-1.046,1.944-2.03,2.823-3.139c1.05-0.206,1.537-0.976,2.515-1.254c-2.564,1.831-5.365,3.423-5.652,7.531
					C32.88,30.688,33.024,29.79,33.29,29.008z"/>
				<path fill="#1D1E1C" stroke="#000000" stroke-width="0.3138" stroke-miterlimit="10" d="M39.567,23.985
					c1.009-0.875,2.472-1.297,4.08-1.568C42.473,23.125,40.907,23.443,39.567,23.985z"/>
				<path fill="#1D1E1C" stroke="#000000" stroke-width="0.3138" stroke-miterlimit="10" d="M63.735,26.497c0.104,0,0.207,0,0.312,0
					c0,1.045,0,2.093,0,3.137c2.063-0.075,3.938,0.038,5.336,0.63c-0.193,1.792-0.17,3.808-0.629,5.333
					c-4.383,0.549-7.055-0.105-5.336-5.02c0,0.94,0,1.883,0,2.824c0,0.418,0,0.838,0,1.255c1.271,0.509,2.918,0.642,4.709,0.628
					c1.069-0.812,0.285-3.481,0.942-4.707c-0.521-0.525-1.846-0.25-2.823-0.313c-0.144-0.519-2.373-0.519-2.513,0
					c-0.104,0-0.211,0-0.315,0c-1.166-0.509-3.084-0.261-4.705-0.314c-0.652,1.126-0.166,3.394-0.314,5.021
					c-1.319,0.667-3.826,0.152-5.649,0.313c-0.629-2.404,0.778-6.846-3.767-5.335c0-0.104,0-0.21,0-0.315c1.15,0,2.302,0,3.453,0
					c0.416-0.645,0.594-3.149,0-3.766c0.164-0.252,0.328-0.508,0.312-0.941c-0.07-0.976-1.562-0.529-2.513-0.626
					c0.353-0.632,2.431-0.36,2.824,0c0,1.567,0,3.138,0,4.706c1.002,0.57,4.004,0.456,5.023,0c0,0.211,0,0.42,0,0.627
					c-1.674,0-3.351,0-5.023,0c-0.36,0.371-0.354,1.109-0.312,1.884c0,1.047,0,2.093,0,3.139c1.114,0.462,4.233,0.565,5.336,0
					c0-1.464,0-2.929,0-4.393c0.307-0.009,0.244-0.385,0.313-0.63c1.672,0,3.349,0,5.021,0
					C63.977,29.041,63.647,27.561,63.735,26.497z"/>
				<path fill="#1D1E1C" stroke="#000000" stroke-width="0.3138" stroke-miterlimit="10" d="M61.538,24.3c0.836,0,1.672,0,2.51,0
					c0.447,0.419,0.447,1.778,0,2.196c-0.105,0-0.209,0-0.312,0c0-0.629,0-1.256,0-1.883c-0.733,0-1.465,0-2.196,0
					c-1.047,0-2.095,0-3.14,0C58.835,23.897,60.583,24.496,61.538,24.3z"/>
				<path fill="#1D1E1C" stroke="#000000" stroke-width="0.3138" stroke-miterlimit="10" d="M58.085,25.868
					c-0.041-0.772-0.047-1.512,0.313-1.883c0.951,0.197,2.701-0.4,3.14,0.315c-0.955,0.195-2.703-0.403-3.14,0.313
					c0,0.418,0,0.837,0,1.254C58.294,25.868,58.186,25.868,58.085,25.868z"/>
				<path fill="#1D1E1C" stroke="#000000" stroke-width="0.3138" stroke-miterlimit="10" d="M48.669,24.614c0-0.105,0-0.211,0-0.313
					c0.522,0,1.047,0,1.567,0c0.951,0.097,2.441-0.35,2.513,0.626c-0.402-0.432-1.363-0.311-2.197-0.312
					C49.925,24.614,49.298,24.614,48.669,24.614z"/>
				<path fill="#1D1E1C" stroke="#000000" stroke-width="0.3138" stroke-miterlimit="10" d="M47.1,26.81
					c-0.127-1.382-0.084-2.595,1.568-2.196c0.629,0,1.256,0,1.883,0c-0.965,0.812-4.152-0.598-3.141,2.196
					C47.307,26.81,47.204,26.81,47.1,26.81z"/>
				<path fill="#1D1E1C" stroke="#000000" stroke-width="0.3138" stroke-miterlimit="10" d="M50.552,24.614
					c0.834,0.002,1.795-0.119,2.197,0.312c0.016,0.434-0.148,0.689-0.312,0.941c0,1.152,0,2.303,0,3.453c-1.567,0-3.139,0-4.709,0
					c-0.172-0.455,0.367-1.623-0.315-1.57c0-0.312,0-0.627,0-0.94C46.399,24.016,49.587,25.426,50.552,24.614z"/>
				<path fill="#1D1E1C" stroke="#000000" stroke-width="0.3138" stroke-miterlimit="10" d="M52.436,25.868
					c0.594,0.616,0.416,3.121,0,3.766c-1.151,0-2.303,0-3.453,0c-1.584,0.432-1.78-0.52-1.571-1.883
					c0.684-0.053,0.145,1.115,0.315,1.57c1.57,0,3.142,0,4.709,0C52.436,28.17,52.436,27.02,52.436,25.868z"/>
				<path fill="#1D1E1C" stroke="#000000" stroke-width="0.3138" stroke-miterlimit="10" d="M44.903,30.263c0-0.105,0-0.21,0-0.314
					c0.732,0,1.466,0,2.197,0c-0.051,0.364,0.068,0.559,0.312,0.628c0,0.836,0,1.674,0,2.51c-0.091,0.852,0.444,2.325-0.938,1.884
					c0.006-0.305,0.385-0.243,0.627-0.314c0-1.359,0-2.72,0-4.079C46.694,30.143,45.737,30.266,44.903,30.263z"/>
				<path fill="#1D1E1C" stroke="#000000" stroke-width="0.3138" stroke-miterlimit="10" d="M52.749,31.517
					c-0.041-0.774-0.049-1.513,0.312-1.884c1.674,0,3.351,0,5.023,0c0,0.211,0,0.42,0,0.63c0,1.464,0,2.929,0,4.393
					c-1.574-0.204-3.969,0.411-5.023-0.313c1.572,0,3.142,0,4.709,0c0-1.465,0-2.93,0-4.394c-1.567,0-3.137,0-4.709,0
					c0,0.523,0,1.046,0,1.568C52.958,31.517,52.854,31.517,52.749,31.517z"/>
				<path fill="#1D1E1C" stroke="#000000" stroke-width="0.3138" stroke-miterlimit="10" d="M52.749,31.517c0.104,0,0.209,0,0.312,0
					c0,0.942,0,1.884,0,2.825c1.056,0.725,3.449,0.109,5.023,0.313c-1.103,0.564-4.222,0.462-5.336,0
					C52.749,33.61,52.749,32.564,52.749,31.517z"/>
				<path fill="#1D1E1C" stroke="#000000" stroke-width="0.3138" stroke-miterlimit="10" d="M42.079,31.204
					c-0.457-1.501,1.312-0.78,2.196-0.94c-0.039,0.692-1.332,0.132-1.883,0.313c-0.338,1.979,0.861,3.125,0.312,4.394
					c0.731,0,1.465,0,2.196,0c0,0.104,0,0.21,0,0.313c-0.627,0-1.256,0-1.883,0c-1.471,0.318,0.056-2.357-0.94-2.512
					C42.079,32.25,42.079,31.728,42.079,31.204z"/>
				<path fill="#1D1E1C" stroke="#000000" stroke-width="0.3138" stroke-miterlimit="10" d="M66.247,30.263
					c0.979,0.063,2.303-0.212,2.823,0.313c-0.657,1.226,0.127,3.895-0.942,4.707c-1.791,0.014-3.438-0.119-4.709-0.628
					c0-0.417,0-0.837,0-1.255c0.694-0.04,0.135-1.332,0.315-1.884c0.851,0.225-0.227-1.479,0.627-1.254
					C64.987,30.263,65.616,30.263,66.247,30.263z"/>
				<path fill="#1D1E1C" stroke="#000000" stroke-width="0.3138" stroke-miterlimit="10" d="M47.411,33.086c0.104,0,0.213,0,0.315,0
					c-0.229,0.961,0.541,0.925,0.314,1.884c-0.252,0.166-0.511,0.327-0.941,0.313c-0.731,0-1.465,0-2.197,0c0-0.104,0-0.209,0-0.313
					c0.521,0,1.045,0,1.57,0C47.856,35.412,47.321,33.938,47.411,33.086z"/>
				<path fill="#1D1E1C" stroke="#000000" stroke-width="0.3138" stroke-miterlimit="10" d="M33.604,39.364
					c-0.08-1.07-0.793-1.508-0.629-2.824c0.107,0,0.211,0,0.314,0c2.869,1.525,6.321,2.467,9.729,3.451
					c0.715,0.543,1.838,0.672,3.14,0.628c1.407-0.153,2.35,0.16,3.448,0.314c0.439,0.716,2.188,0.116,3.142,0.313
					c0.209,0,0.416,0,0.629,0c0.643,0.521,3.436,0.521,4.08,0c0.207,0,0.42,0,0.627,0c1.057-0.198,2.916,0.404,3.453-0.313
					c1.787-0.199,3.278-0.694,5.334-0.628c1.371-0.095,2.604-0.326,3.453-0.941c2.483-0.652,4.633-1.646,6.903-2.51
					c0.105,0,0.211,0,0.314,0c1.242-0.877,0.088,1.546,0,2.195c-1.054,1.146-2.017,2.38-3.451,3.139
					c-3.408,2.349-7.793,3.719-13.184,4.08c-3.453,0.208-7.74-0.416-10.673,0.314c-5.186-0.986-10.483-1.86-13.807-4.709
					C35.678,40.846,34.415,40.333,33.604,39.364z"/>
				<path fill="#1D1E1C" stroke="#000000" stroke-width="0.3138" stroke-miterlimit="10" d="M43.02,39.991
					c1.097,0.162,2.369,0.143,3.14,0.628C44.858,40.663,43.735,40.534,43.02,39.991z"/>
				<path fill="#1D1E1C" stroke="#000000" stroke-width="0.3138" stroke-miterlimit="10" d="M66.872,40.305
					c0.912-0.552,2.215-0.715,3.453-0.941C69.475,39.979,68.243,40.21,66.872,40.305z"/>
				<path fill="#1D1E1C" stroke="#000000" stroke-width="0.3138" stroke-miterlimit="10" d="M74.405,42.502
					c0.062-0.355,0.316-0.175,0.312,0c0.77-0.175,0.67-1.214,1.885-0.941c-0.35-0.387-0.274-0.645,0.314-0.628
					c0.127,0.757-0.574,0.683-0.314,1.569c-0.254-0.06-0.312-0.314-0.629-0.314c0.125,1.07,0.967,0.518,0,1.256
					c-0.854,0.229-0.631-0.625-1.256-0.627C74.452,42.873,74.423,42.694,74.405,42.502z"/>
				<path fill="#1D1E1C" stroke="#000000" stroke-width="0.3138" stroke-miterlimit="10" d="M78.485,54.116
					c-0.039-4.983-1.774-8.266-3.768-11.299c0.625,0.002,0.4,0.855,1.256,0.627c0.967-0.738,0.125-0.186,0-1.256
					c0.316,0,0.375,0.255,0.629,0.314c-0.26-0.887,0.441-0.812,0.314-1.569c-0.59-0.017-0.664,0.241-0.314,0.628
					c-1.215-0.272-1.115,0.767-1.885,0.941c0.004-0.175-0.252-0.355-0.312,0c-0.27,0.057-0.297-0.122-0.312-0.314
					c1.436-0.759,2.398-1.992,3.451-3.139c0,0.314,0,0.629,0,0.941c0.541,0.125,0.803-0.465,0.94,0
					c0.261,0.888-0.442,0.812-0.312,1.57c1.598-0.359,0.729,1.262,0.625,1.883c1.389-0.222,1.41,1.594,0.629,1.884
					c-0.029-0.493,0.041-1.089-0.629-0.942c-0.17,0.456,0.369,1.622-0.312,1.569c-0.387-0.556-0.975-0.909-1.256-1.569
					c0.054,1.793,0.947,4.064,2.197,2.824c-1.002,1.127-1.105,3.113,0.314,4.08c0.381-0.56,0.057-1.825,0.629-2.196
					c0.067,0.243,0.006,0.62,0.311,0.628c-0.246,0.217-0.697,1.75,0,1.883c0,0.314,0,0.628,0,0.941
					c-0.305,0.009-0.242,0.384-0.311,0.628c-0.254,1.317-0.902,2.236-0.943,3.767c0.678-0.949,0.264-0.949,0.943,0
					c-0.062,0.254-0.316,0.312-0.316,0.627c-0.555-0.069-1.57,0.315-1.256-0.627C79.561,56.358,78.829,54.631,78.485,54.116z"/>
				<path fill="#1D1E1C" stroke="#000000" stroke-width="0.3138" stroke-miterlimit="10" d="M80.37,53.173
					c0.067-0.244,0.006-0.619,0.311-0.628c-0.283,1.599,0.648,4.414-0.627,5.021c0-0.314,0.256-0.373,0.316-0.627
					C80.37,55.684,80.37,54.428,80.37,53.173z"/>
				<path fill="#1D1E1C" stroke="#000000" stroke-width="0.3138" stroke-miterlimit="10" d="M30.78,53.173
					c-0.327,1.45,0.816,4.374-0.942,4.394c-1.887-0.31-0.529-3.863-0.939-5.648c0.104,0,0.207,0,0.314,0
					c0.365,1.62-0.767,4.74,0.625,5.336c1.139-0.223,0.434-2.29,0.629-3.454C30.536,53.557,30.473,53.182,30.78,53.173z"/>
				<path fill="#1D1E1C" stroke="#000000" stroke-width="0.3138" stroke-miterlimit="10" d="M48.669,24.614
					c-1.652-0.398-1.695,0.813-1.568,2.196c0,0.731,0,1.464,0,2.198c-0.725-0.951-0.11-3.238-0.315-4.708c0.627,0,1.258,0,1.885,0
					C48.669,24.403,48.669,24.508,48.669,24.614z"/>
				<path fill="#1D1E1C" stroke="#000000" stroke-width="0.3138" stroke-miterlimit="10" d="M41.762,31.204
					c-0.164-0.252-0.326-0.51-0.312-0.94c0.405-0.433,1.362-0.311,2.196-0.314c0.42,0,0.838,0,1.256,0c0,0.104,0,0.209,0,0.314
					c-0.211,0-0.418,0-0.627,0c-0.885,0.16-2.653-0.561-2.196,0.94C41.971,31.204,41.868,31.204,41.762,31.204z"/>
				<path fill="#1D1E1C" stroke="#000000" stroke-width="0.3138" stroke-miterlimit="10" d="M63.419,33.401c0-0.941,0-1.884,0-2.824
					c0-0.104,0-0.209,0-0.313c0.104,0,0.211,0,0.315,0c0,0.417,0,0.837,0,1.254C63.553,32.069,64.114,33.361,63.419,33.401z"/>
				<path fill="#1D1E1C" stroke="#000000" stroke-width="0.3138" stroke-miterlimit="10" d="M42.079,32.772
					c0.996,0.154-0.529,2.83,0.94,2.512c0,0.104,0,0.209,0,0.312c-1.049,0.316-1.028-0.434-0.94-1.254
					C42.079,33.819,42.079,33.296,42.079,32.772z"/>
				<path fill="#1D1E1C" stroke="#000000" stroke-width="0.3138" stroke-miterlimit="10" d="M50.237,46.583
					c2.933-0.73,7.22-0.106,10.673-0.314c-0.068,0.245-0.263,0.365-0.627,0.314c-3.244,0-6.488,0-9.73,0
					C50.448,46.583,50.341,46.583,50.237,46.583z"/>
				<path fill="#1D1E1C" stroke="#000000" stroke-width="0.3138" stroke-miterlimit="10" d="M80.995,49.407
					c0.184,1.02-0.216,1.461-0.314,2.197c-0.697-0.133-0.246-1.666,0-1.883c0-1.36,0-2.721,0-4.08
					C81.401,46.28,80.794,48.247,80.995,49.407z"/>
				<path fill="#1D1E1C" stroke="#000000" stroke-width="0.3138" stroke-miterlimit="10" d="M30.78,52.86
					c-1.288,0.144,0.128-0.671-0.313-1.57c0.316,0,0.373,0.255,0.631,0.314C31.04,52.074,31.208,52.762,30.78,52.86z"/>
				<path fill="#1D1E1C" stroke="#000000" stroke-width="0.3138" stroke-miterlimit="10" d="M78.485,54.116
					c0.345,0.516,1.076,2.242,0.312,2.824C78.085,56.606,78.678,54.967,78.485,54.116z"/>
				<path fill="#1D1E1C" stroke="#000000" stroke-width="0.3138" stroke-miterlimit="10" d="M80.37,56.94
					c-0.681-0.949-0.267-0.949-0.943,0c0.041-1.53,0.689-2.449,0.943-3.767C80.37,54.428,80.37,55.684,80.37,56.94z"/>
				<path fill="#1D1E1C" stroke="#000000" stroke-width="0.3138" stroke-miterlimit="10" d="M52.749,40.933c1.776,0,3.559,0,5.336,0
					c0,0.104,0,0.21,0,0.313c-0.207,0-0.42,0-0.627,0c-1.361,0-2.724,0-4.08,0c-0.213,0-0.42,0-0.629,0
					C52.749,41.143,52.749,41.038,52.749,40.933z"/>
				<path fill="#1D1E1C" stroke="#000000" stroke-width="0.3138" stroke-miterlimit="10" d="M58.399,24.614c1.045,0,2.093,0,3.14,0
					c-0.054,0.888,1.934-0.262,1.881,0.627c-0.127,1.338,0.305,3.233-0.312,4.08c-1.528-0.145-3.676,0.328-4.709-0.314
					c0-1.045,0-2.092,0-3.139C58.399,25.451,58.399,25.032,58.399,24.614z"/>
				<path fill="#1D1E1C" stroke="#000000" stroke-width="0.3138" stroke-miterlimit="10" d="M50.552,46.583c3.242,0,6.486,0,9.73,0
					C57.768,47.106,53.067,47.106,50.552,46.583z"/>
			</g>
		</g>
		<path fill="#FFFFFF" stroke="#1D1E1C" stroke-width="0.8896" stroke-miterlimit="10" d="M64.911,73.06
			c-1.707-0.909-27.812,0.261-29.529-0.639c-3.627-2.336-6.703-5.225-6.904-10.983c-0.516-0.948-2.178-0.752-2.51-1.884
			c0-2.823,0-5.648,0-8.474c0.305-0.008,0.242-0.383,0.314-0.627c0.875-0.398,1.551-0.774,2.51-0.314
			c0.153,0.99-0.566,1.109-0.314,2.197c0.412,1.785-0.944,5.339,0.941,5.649c1.758-0.021,0.615-2.943,0.94-4.394
			c0-0.105,0-0.209,0-0.314c0.429-0.098,0.263-0.786,0.312-1.256c0.266-1.324,0.926-2.35,0.629-3.766
			c1.223-0.765,1.285-2.69,1.885-4.08c0.379-0.066,0.193-0.348,0-0.628c1.379-0.116,1.146-2.33,2.822-1.256
			C39.334,45.14,44.635,46.013,49.82,47c0.103,0,0.207,0,0.312,0c2.514,0.521,7.215,0.521,9.729,0
			c0.365,0.05,0.562-0.069,0.63-0.314c5.393-0.362,9.772-1.731,13.182-4.079c0.016,0.191,0.047,0.371,0.313,0.312
			c0.019,0.192,0.045,0.372,0.312,0.314c1.99,3.033,3.727,6.316,3.768,11.298c0.195,0.853-0.399,2.491,0.312,2.824
			c-0.316,0.945,0.699,0.559,1.256,0.629c1.275-0.609,0.344-3.423,0.627-5.021c0-0.315,0-0.628,0-0.942
			c0.102-0.736,0.496-1.178,0.314-2.196c3.512,0.642,3.147,10.948-0.314,11.297c-0.363,0.053-0.34,0.498-0.312,0.941
			c-0.699,5.266-3.767,8.161-7.22,10.672C70.319,72.943,66.796,72.332,64.911,73.06L64.911,73.06z"/>
	</g>
</g>
</svg>
