<?xml version="1.0" encoding="utf-8"?>
<!-- Generator: Adobe Illustrator 15.0.0, SVG Export Plug-In . SVG Version: 6.00 Build 0)  -->
<!DOCTYPE svg PUBLIC "-//W3C//DTD SVG 1.1//EN" "http://www.w3.org/Graphics/SVG/1.1/DTD/svg11.dtd">
<svg version="1.1" id="Capa_1" xmlns="http://www.w3.org/2000/svg" xmlns:xlink="http://www.w3.org/1999/xlink" x="0px" y="0px"
	 width="113.387px" height="113.386px" viewBox="0 0 113.387 113.386" enable-background="new 0 0 113.387 113.386"
	 xml:space="preserve">
<g id="J9i53S_1_">
	<g>
		<path fill-rule="evenodd" clip-rule="evenodd" d="M44.267,9.193c1.199,0,2.398,0,3.597,0c1.464,0.861,3.416,0.958,5.524,1.414
			c1.075,0.232,2.134,0.308,3.211,0.514c2.029,0.387,4.075,0.932,6.167,1.285c1.553,0.262,3.062,0.501,4.754,0.899
			c4.302,1.012,9.152,1.759,13.875,2.698c1.993,0.396,4.004,0.922,6.038,1.285c1.789,0.319,3.928,0.811,6.167,1.285
			c2.157,0.457,4.67,0.511,6.038,1.285c0.76,0.429,1.147,1.34,2.056,1.798c0,1.328,0,2.655,0,3.982
			c-0.717,0.759-0.973,1.919-1.285,2.955c-0.319,1.062-0.714,2.133-1.027,3.212c-0.1,0.344-0.015,0.716-0.129,1.028
			c-0.205,0.56-0.646,1.367-0.898,2.184c-0.324,1.044-0.403,2.199-1.027,3.083c-1.806,6.36-4.258,12.627-6.296,19.014
			c-0.492,1.543-1.127,3.051-1.671,4.625c-1.308,3.789-2.878,7.711-4.238,11.562c-0.28,0.794-0.469,1.589-0.771,2.312
			c-0.704,1.688-1.499,3.32-2.185,5.011c-1.025,2.529-2.072,4.991-3.211,7.451c-0.179,0.386-0.424,0.789-0.643,1.157
			c-1.03,1.729-2.093,3.812-3.598,5.267c-1.099,2.027-3.154,3.098-4.754,4.625c-2.076,1.05-4.518,1.735-6.809,2.569
			c-2.698,0-5.396,0-8.094,0c-1.55-0.688-3.172-1.18-4.753-1.799c-1.554-0.608-3.101-1.23-4.625-1.927
			c-3.006-1.375-5.973-2.806-8.993-4.111c-1.13-0.488-2.244-1.068-3.469-1.541c-1.786-0.69-3.688-1.688-5.524-2.57
			c-2.221-1.065-4.49-2.007-6.809-3.083c-1.667-0.772-3.04-1.268-4.497-2.312c-1.946-1.395-3.567-3.452-5.01-5.524
			c-1.013-2.284-1.602-4.993-2.184-7.708c0-0.943,0-1.884,0-2.827c0.742-0.751,0.156-4.418,1.67-4.753
			c0.631-0.139,1.461,0.421,2.57,0.9c2.062,0.889,3.866,1.545,5.781,2.183c0.571,0.191,1.206,0.668,1.798,0.899
			c1.795,0.703,3.371,1.45,5.01,2.056c1.646,0.608,3.37,1.163,5.139,1.928c0.35,0.15,0.63,0.488,1.028,0.642
			c0.449,0.174,0.945,0.203,1.413,0.386c0.821,0.32,1.666,0.699,2.57,1.027c0.815,0.297,1.663,0.682,2.441,1.028
			c2.735,1.216,4.611,1.806,7.58,3.084c1.552,0.667,4.178,1.342,4.753,2.439c0.602,1.148,0.14,3.265,0.385,4.883
			c0.201,1.315,0.783,2.156,0.643,2.954c0.297,0.304,0.535,0.665,0.514,1.286c1.271,1.598,2.217,3.418,3.982,4.11
			c2.323,0.912,6.192,0.668,8.224-0.129c0.565-0.222,0.838-0.315,1.284-0.642c1.925-1.414,3.227-2.932,4.497-4.883
			c0.821-1.264,1.713-2.577,1.926-3.726c1.312-2.1,2.033-4.492,2.954-6.809c0.454-1.141,1.104-2.187,1.543-3.341
			c0.451-1.187,0.892-2.36,1.284-3.597c0.375-1.177,0.969-2.255,1.413-3.469c0.436-1.188,0.719-2.519,1.157-3.726
			c0.428-1.181,0.936-2.273,1.412-3.469c0.487-1.219,0.68-2.618,1.157-3.854c0.22-0.57,0.576-1.045,0.771-1.67
			c0.577-1.854,1.183-3.654,1.798-5.524c1.688-5.128,3.137-9.354,5.012-14.518c0.566-1.56,1.119-3.929,1.798-5.524
			c0.36-0.846,0.672-1.301,0.386-1.927c-0.285-0.625-1.112-0.641-2.441-0.899c-11.151-2.168-21.698-4.541-32.503-6.423
			c-3.257-0.567-6.617-1.632-10.021-1.927c-0.662,0.411-0.715,1.092-0.9,1.799c-0.062,0.239-0.312,0.438-0.385,0.643
			c-0.502,1.399-0.901,2.897-1.414,4.239c-0.076,0.199-0.322,0.348-0.386,0.514c-0.34,0.892-0.389,1.588-0.642,2.312
			c-0.155,0.442-0.34,0.996-0.514,1.413c-2.25,5.392-4.079,11.15-6.167,16.573c-0.345,0.896-0.555,1.918-0.898,2.826
			c-0.531,1.405-1.033,2.744-1.542,4.111c-0.489,1.313-1.016,2.807-1.542,4.24c-0.508,1.384-0.992,2.885-1.542,4.24
			c-0.585,1.439-2.028,3.745-4.24,3.597c-1.282-0.086-2.997-1.552-3.34-2.826c-0.389-1.442,0.102-2.611,0.643-3.983
			c0.4-1.015,0.73-2.014,1.028-2.955c0.328-1.039,0.843-1.942,1.156-2.826c1.822-5.149,3.539-10.291,5.396-14.903
			c0.797-1.979,1.44-4.01,2.056-5.91c0.318-0.984,0.764-1.872,1.156-2.826c0.411-1,0.656-2.1,1.028-3.083
			c1.522-4.033,3.046-7.905,4.239-11.948C42.134,11.257,43.002,10.026,44.267,9.193z"/>
		<path fill-rule="evenodd" clip-rule="evenodd" d="M49.534,35.658c-0.252-0.749-0.959-0.895-1.285-1.542
			c-0.947-1.886,0.308-3.845,1.67-4.882c1.265-0.248,2.52-0.609,3.597-0.128c1.155,0.516,2.38,2.312,2.441,3.34
			c0.117,1.977-2.177,4.086-4.368,3.983C50.844,36.394,50.292,35.809,49.534,35.658z"/>
		<path fill-rule="evenodd" clip-rule="evenodd" d="M78.954,43.88c-1.675,0.239-3.09-0.538-4.497-0.899
			c-0.774-0.199-1.559-0.166-2.312-0.385c-0.611-0.178-1.179-0.601-1.799-0.771c-1.41-0.387-2.832-0.612-4.238-1.027
			c-1.38-0.408-2.739-0.842-4.24-1.028c-1.227-1.108-3.05-1.845-2.955-3.982c0.051-1.146,1.812-3.528,3.469-3.597
			c1.515-0.062,2.834,0.552,4.368,1.028c1.272,0.394,2.763,0.56,4.239,1.028c2.319,0.735,4.144,1.125,6.296,1.798
			c0.711,0.223,1.483,0.27,2.055,0.514c1.021,0.437,2.413,1.989,2.569,2.698C82.428,41.608,80.933,42.882,78.954,43.88z"/>
		<path fill-rule="evenodd" clip-rule="evenodd" d="M46.065,43.752c1.204-0.095,2.37,0.331,3.211,1.285
			c0.344,0.39,0.975,1.552,1.028,1.927c0.374,2.638-2.496,4.583-4.753,4.24c-1.394-0.212-3.451-2.064-3.212-4.24
			C42.508,45.435,43.789,43.933,46.065,43.752z"/>
		<path fill-rule="evenodd" clip-rule="evenodd" d="M73.044,51.974c0.81,0.988,2.276,1.56,2.569,2.955
			c0.473,2.248-1.132,3.292-2.44,4.369c-2.229,0.462-3.607-0.371-5.781-1.027c-2.519-0.763-5.081-1.706-7.58-2.57
			c-1.406-0.486-2.761-0.692-3.854-1.156c-0.336-0.143-0.509-0.418-0.9-0.643c-0.346-0.2-0.786-0.178-1.027-0.386
			c-0.144-0.123-1.075-1.428-1.156-1.67c-1.026-3.053,2.084-5.423,5.268-4.753c0.309,0.065,0.714,0.263,1.027,0.385
			c1.465,0.572,3.743,1.31,5.525,1.927c0.798,0.276,1.616,0.397,2.44,0.643c0.729,0.217,1.355,0.653,2.055,0.899
			C70.522,51.414,71.879,51.59,73.044,51.974z"/>
		<path fill-rule="evenodd" clip-rule="evenodd" d="M40.541,57.499c1.001-0.04,1.882,0.238,2.697,1.028
			c0.811,0.784,1.838,2.196,1.157,3.982c-0.266,0.694-1.771,2.113-2.827,2.441c-0.604,0.186-1.485,0.13-1.927,0
			c-1.51-0.446-3.503-2.488-2.955-4.625c0.194-0.76,1.705-2.581,2.697-2.827C39.592,57.447,40.092,57.516,40.541,57.499z"/>
		<path fill-rule="evenodd" clip-rule="evenodd" d="M67.263,66.492c0.822,0.687,1.288,1.091,1.927,2.056
			c0.43,0.646,0.976,1.3,0.515,2.698c-0.329,0.995-2.023,2.527-2.955,2.697c-1.724,0.315-3.628-0.776-5.268-1.285
			c-1.077-0.333-2.09-0.799-3.211-1.155c-2.392-0.763-4.913-1.391-6.81-2.056c-1.879-0.66-4.337-1.79-4.625-3.726
			c-0.38-2.565,1.908-4.59,4.753-4.24c1.308,0.161,2.649,0.84,3.982,1.284C59.462,64.065,63.203,65.291,67.263,66.492z"/>
		<g>
		</g>
	</g>
</g>
</svg>
