<?xml version="1.0" encoding="utf-8"?>
<!-- Generator: Adobe Illustrator 15.0.0, SVG Export Plug-In . SVG Version: 6.00 Build 0)  -->
<!DOCTYPE svg PUBLIC "-//W3C//DTD SVG 1.1//EN" "http://www.w3.org/Graphics/SVG/1.1/DTD/svg11.dtd">
<svg version="1.1" id="Capa_1" xmlns="http://www.w3.org/2000/svg" xmlns:xlink="http://www.w3.org/1999/xlink" x="0px" y="0px"
	 width="113.387px" height="113.386px" viewBox="0 0 113.387 113.386" enable-background="new 0 0 113.387 113.386"
	 xml:space="preserve">
<g id="tnWX5x_1_">
	<g>
		<path d="M36.447,103.38c-1.495-1.583-2.649-3.49-3.923-5.351c-3.703-5.408-7.089-11.451-9.275-18.46
			c-0.779-2.498-1.352-5.078-1.427-7.847c-0.075-2.773,0.669-5.314,1.784-7.402c0.958-1.795,2.5-3.57,4.37-4.905
			c2.466-1.76,5.963-3.155,10.345-2.586c5.066,0.657,8.846,3.771,10.885,7.58c1.106,2.066,1.902,4.558,1.785,7.491
			c-0.112,2.797-0.678,5.253-1.428,7.758c-1.354,4.519-3.472,8.996-5.709,12.752C41.487,96.378,39.025,100.136,36.447,103.38z
			 M29.67,67.531c-0.641,1.083-1.163,2.279-1.159,4.013c0.009,5.028,4.554,8.669,9.453,7.758c1.274-0.235,2.661-1.039,3.391-1.693
			c1.241-1.113,2.413-2.601,2.766-4.37c0.619-3.107-0.572-5.606-2.052-7.134c-1.5-1.549-3.587-2.731-6.335-2.408
			C32.618,64.063,30.88,65.486,29.67,67.531z"/>
	</g>
</g>
<g id="tnWX5x_2_">
	<g>
		<path d="M78.787,77.163c-1.494-1.583-2.649-3.49-3.924-5.351c-3.702-5.408-7.089-11.451-9.274-18.46
			c-0.779-2.498-1.353-5.078-1.427-7.847c-0.075-2.773,0.67-5.314,1.783-7.402c0.958-1.795,2.5-3.57,4.37-4.905
			c2.466-1.76,5.964-3.155,10.345-2.586c5.066,0.657,8.846,3.771,10.885,7.58c1.106,2.066,1.902,4.558,1.785,7.491
			c-0.112,2.797-0.678,5.253-1.428,7.758c-1.354,4.519-3.472,8.996-5.709,12.752C83.827,70.161,81.365,73.918,78.787,77.163z
			 M72.01,41.313c-0.641,1.083-1.162,2.279-1.159,4.013c0.009,5.028,4.554,8.669,9.453,7.758c1.274-0.235,2.661-1.039,3.391-1.693
			c1.241-1.113,2.413-2.601,2.766-4.37c0.619-3.107-0.572-5.606-2.052-7.134c-1.5-1.549-3.587-2.731-6.335-2.408
			C74.958,37.845,73.219,39.268,72.01,41.313z"/>
	</g>
</g>
<text transform="matrix(1 0 0 1 10.0203 103.3384)" font-family="'DINPro-Black'" font-size="28.7405">A</text>
<text transform="matrix(1 0 0 1 87.1179 85.5483)" font-family="'DINPro-Black'" font-size="28.7405">B</text>
<g>
	<g>
		<path fill="none" stroke="#000000" stroke-width="5.6693" stroke-miterlimit="10" d="M36.193,71.193
			C3.799,47.922,40.608-0.182,68.767,30.127"/>
		<g>
			<polygon points="55.249,29.947 66.393,27.523 72.385,17.818 78.193,44.193 			"/>
		</g>
	</g>
</g>
</svg>
