<?xml version="1.0" encoding="utf-8"?>
<!-- Generator: Adobe Illustrator 15.0.0, SVG Export Plug-In . SVG Version: 6.00 Build 0)  -->
<!DOCTYPE svg PUBLIC "-//W3C//DTD SVG 1.1//EN" "http://www.w3.org/Graphics/SVG/1.1/DTD/svg11.dtd">
<svg version="1.1" id="Capa_1" xmlns="http://www.w3.org/2000/svg" xmlns:xlink="http://www.w3.org/1999/xlink" x="0px" y="0px"
	 width="113.387px" height="113.386px" viewBox="0 0 113.387 113.386" enable-background="new 0 0 113.387 113.386"
	 xml:space="preserve">
<g id="cAPfw9_1_">
	<g>
		<path fill-rule="evenodd" clip-rule="evenodd" d="M13.034,61.365c0-3.158,0-6.315,0-9.474c0.181-0.945,0.404-2.2,0.592-3.197
			c0.63-3.345,1.473-5.681,2.605-8.408c4.223-10.168,11.884-17.663,22.026-22.026c3.186-1.371,7.194-2.644,11.605-3.078
			c4.48-0.441,9.176-0.321,13.618,0.591c5.547,1.14,11.082,3.807,15.275,6.75c0.818,0.574,3.98,2.378,4.025,3.434
			c0.014,0.321-0.605,1.256-0.947,1.777c-1.24,1.894-2.553,2.995-4.262,4.145c-5.633-4.55-11.619-8.345-20.605-8.763
			c-11.894-0.553-20.746,4.189-26.526,10.303c-3.563,3.77-6.606,8.443-8.171,13.974c-2.283,8.069-1.064,17.937,2.487,24.632
			c3.294,6.211,8.403,11.334,14.921,14.566c3.381,1.678,7.028,2.756,11.368,3.316c9.214,1.188,17.743-2.068,23.09-5.922
			c2.82-2.031,5.479-4.336,7.58-7.223c4.111-5.652,7.207-12.9,6.631-22.857c-0.084-1.433-0.561-2.742-0.475-4.145
			c1.848-1.116,4.977-1.573,7.936-1.184c1.891,8.499,0.379,16.856-2.014,22.975c-3.52,9.002-9.219,15.676-16.934,20.486
			c-4.455,2.777-9.748,4.936-15.631,5.803c-14.012,2.062-25.198-2.693-32.92-8.883C20.259,82.505,14.889,73.701,13.034,61.365z"/>
		<path fill-rule="evenodd" clip-rule="evenodd" d="M109.383,36.999c0,0.158,0,0.316,0,0.474c-1.432,0.61-3.049,1.55-4.736,2.487
			c-3.949,2.195-7.439,4.171-11.486,6.395c-0.885,0.485-1.768,1.228-2.369,1.303c-0.525,0.065-1.184-0.155-1.775-0.237
			c-0.623-0.087-1.312-0.205-1.895-0.237c-5.666-0.313-9.846,1.635-13.383,3.553c-6.047,3.279-4.239,2.038-10.021,5.183
			c-0.143,5.667-3.95,9.522-9.354,9.354c-3.895-0.12-6.355-2.492-7.698-5.091c-2.879-5.576,1.125-12.224,6.987-12.791
			c2.054-0.199,3.65,0.267,4.856,0.829c0.566,0.265,1.15,0.721,1.539,0.71c0.464-0.012,1.301-0.788,2.014-1.185
			c4.947-2.759,2.099-0.542,6.704-3.168c2.971-1.696,5.426-3.059,7.697-5.329c1.654-1.655,3.029-3.708,4.025-5.803
			c0.367-0.768,0.457-1.784,0.947-2.368c0.402-0.479,1.525-0.838,2.369-1.303c2.447-1.348,4.896-2.815,6.986-4.026
			c2.51-1.454,4.799-2.578,7.105-3.908c0.717-0.413,1.486-1.067,2.367-1.066c-0.963,4.326-2.201,8.377-3.195,12.671
			C100.996,34.808,105.293,35.8,109.383,36.999z"/>
		<path fill-rule="evenodd" clip-rule="evenodd" d="M69.637,36.26c-0.498,0.55-1.227,0.934-1.895,1.302
			c-1.916,1.059-4.102,2.12-6.039,3.316c-2.146-0.733-4.461-1.477-7.34-1.421c-5.619,0.108-9.983,2.722-12.908,6.158
			c-2.042,2.398-3.627,6.064-3.908,9.711c-0.063,0.823-0.068,1.54,0,2.487c0.653,9.114,8.296,16.614,18.71,15.868
			c4.434-0.318,7.932-2.367,10.418-4.854c2.645-2.645,4.539-5.533,5.094-10.186c2.654-1.568,5.275-3.171,8.17-4.501
			c0.771,8.351-2.008,14.364-6.039,19.065c-4.299,5.016-11.417,9.363-21.433,8.645c-3.045-0.217-6.28-1.152-8.645-2.367
			c-4.371-2.246-8.214-5.418-10.776-9.592c-2.201-3.586-3.767-8.102-3.79-12.909c-0.036-7.671,2.849-13.333,6.987-17.646
			c4.062-4.234,9.195-7.518,16.934-8.052C60.221,30.8,65.696,33.322,69.637,36.26z"/>
		<g>
		</g>
	</g>
</g>
</svg>
