<?xml version="1.0" encoding="utf-8"?>
<!-- Generator: Adobe Illustrator 15.0.0, SVG Export Plug-In . SVG Version: 6.00 Build 0)  -->
<!DOCTYPE svg PUBLIC "-//W3C//DTD SVG 1.1//EN" "http://www.w3.org/Graphics/SVG/1.1/DTD/svg11.dtd">
<svg version="1.1" id="Capa_1" xmlns="http://www.w3.org/2000/svg" xmlns:xlink="http://www.w3.org/1999/xlink" x="0px" y="0px"
	 width="113.387px" height="113.386px" viewBox="0 0 113.387 113.386" enable-background="new 0 0 113.387 113.386"
	 xml:space="preserve">
<g>
	<g id="tnWX5x_1_">
		<g>
			<path fill="#000100" d="M55.14,102.283c-2.952-3.122-5.229-6.886-7.743-10.559C40.091,81.053,33.407,69.13,29.095,55.296
				c-1.537-4.932-2.667-10.022-2.814-15.486c-0.148-5.471,1.32-10.485,3.519-14.605c1.891-3.542,4.933-7.045,8.623-9.678
				c4.866-3.474,11.768-6.226,20.415-5.103c9.995,1.297,17.455,7.442,21.478,14.958c2.182,4.076,3.752,8.992,3.521,14.782
				c-0.221,5.519-1.337,10.365-2.816,15.309c-2.669,8.92-6.849,17.756-11.266,25.166C65.086,88.467,60.228,95.881,55.14,102.283z
				 M41.766,31.54c-1.265,2.138-2.295,4.497-2.289,7.918c0.019,9.921,8.986,17.106,18.655,15.309
				c2.515-0.466,5.251-2.053,6.691-3.344c2.449-2.197,4.762-5.131,5.456-8.622c1.223-6.133-1.128-11.063-4.049-14.078
				c-2.96-3.055-7.077-5.389-12.5-4.751C47.583,24.697,44.153,27.505,41.766,31.54z"/>
		</g>
	</g>
</g>
</svg>
