<?xml version="1.0" encoding="utf-8"?>
<!-- Generator: Adobe Illustrator 15.0.0, SVG Export Plug-In . SVG Version: 6.00 Build 0)  -->
<!DOCTYPE svg PUBLIC "-//W3C//DTD SVG 1.1//EN" "http://www.w3.org/Graphics/SVG/1.1/DTD/svg11.dtd">
<svg version="1.1" id="Capa_1" xmlns="http://www.w3.org/2000/svg" xmlns:xlink="http://www.w3.org/1999/xlink" x="0px" y="0px"
	 width="113.387px" height="113.386px" viewBox="0 0 113.387 113.386" enable-background="new 0 0 113.387 113.386"
	 xml:space="preserve">
<g id="PJaIJG_1_">
	<g>
		<path fill-rule="evenodd" clip-rule="evenodd" d="M58.024,8.536c0.559,0,1.115,0,1.674,0c2.425,2.257,7.344,2.021,9.03,5.017
			c-2.096,0.446-3.814,0.943-6.02,1.672c-1.909,0.631-4.265,2.066-6.022,2.006c-1.646-0.055-3.699-1.586-5.351-2.341
			c-1.671-0.763-4.35-1.341-4.682-3.345C51.25,11.35,54.796,10.102,58.024,8.536z"/>
		<path fill-rule="evenodd" clip-rule="evenodd" d="M53.342,17.566c-0.291,1.381-1.674,1.671-3.344,1.672
			c-2.165,1.198-4.863,1.593-7.357,2.341c-1.414,0.424-2.041,1.163-3.679,1.003c-1.287-0.125-3.421-1.596-4.682-2.341
			c-1.274-0.752-2.996-1.113-4.013-2.676c1.125-1.884,5.051-0.968,6.354-2.675c2.667,0.271,4.059-1.345,6.354-1.338
			C46.813,13.566,49.814,16.73,53.342,17.566z"/>
		<path fill-rule="evenodd" clip-rule="evenodd" d="M83.444,18.569c-1.946,2.347-6.595,2.756-9.699,4.013
			c-1.146,0.464-1.534,1.211-3.679,1.003c-0.88-0.084-0.496-0.565-1.338-1.003c-1.013-0.526-2.717-0.568-3.679-1.003
			c-0.623-0.282-0.733-1.015-1.338-1.338c-1.302-0.696-3.186-0.388-4.014-1.672c0.278-1.17,1.539-1.36,3.011-1.338
			c1.495-1.008,4.47-1.58,7.023-2.341c2.679-0.798,3.715-0.071,6.354,1.003c0.68,0.277,1.574,0.139,2.006,0.334
			c0.253,0.115,0.432,0.909,0.669,1.003C80.372,17.878,82.002,17.876,83.444,18.569z"/>
		<path fill-rule="evenodd" clip-rule="evenodd" d="M35.951,23.251c-1.406,1.906-4.423,1.937-6.689,2.676
			c-2.908,0.949-5.792,2.029-8.361,3.01c-1.82-0.539-3.375-1.725-5.017-2.675c-1.462-0.846-3.753-1.518-4.348-3.345
			c0.894-1.126,3.277-1.086,5.017-1.672c1.08-0.363,1.735-1.139,3.679-1.003c1.483-1.081,4.202-0.926,5.686-2.007
			C29.694,19.476,32.852,21.334,35.951,23.251z"/>
		<path fill-rule="evenodd" clip-rule="evenodd" d="M67.39,24.924c-2.665,1.474-5.947,1.957-9.031,3.01
			c-0.668,0.229-3.825,2.046-5.017,2.007c-1.81-0.06-3.994-1.819-5.685-2.676c-1.929-0.977-3.747-1.762-5.351-3.01
			c1.6-2.413,6.361-1.665,8.361-3.679c2.613,0.006,4.302-1.312,6.689-1.003c0.738,0.096,0.379,0.667,1.338,1.003
			c0.479,0.167,1.218-0.217,1.674,0c0.953,0.455,1.727,1.559,2.675,2.006C64.708,23.369,67.159,23.081,67.39,24.924z"/>
		<path fill-rule="evenodd" clip-rule="evenodd" d="M99.162,25.593c-0.039,1.188-1.107,1.346-2.342,1.337
			c-2.224,1.24-4.049,1.894-7.022,3.01c-3.866,1.452-5.771,0.142-9.699-1.672c-2.342-1.081-4.406-1.994-6.354-3.01
			c0.226-1.447,1.839-1.506,3.345-1.672c1.854-1.49,5.239-1.449,7.023-3.01C90.85,20.527,94.304,23.762,99.162,25.593z"/>
		<path fill-rule="evenodd" clip-rule="evenodd" d="M9.196,25.258c4.084,1.267,7.09,3.611,10.033,6.02
			c0.534,4.076,0.893,12.591,1.338,16.722c-3.666-1.797-6.666-4.258-9.699-6.688c-0.088-4.096-0.652-10.454-1.672-14.715
			C9.196,26.15,9.196,25.704,9.196,25.258z"/>
		<path fill-rule="evenodd" clip-rule="evenodd" d="M49.997,31.278c-3.062,1.249-7.004,2.068-10.368,3.344
			c-3.392,1.287-5.514,2.892-9.364,0.669c-0.848-0.49-1.67-1.26-2.341-1.672c-1.737-1.066-3.55-1.756-4.682-3.344
			c-0.218-1.333,1.271-0.958,2.341-1.003c2.871-1.536,6.986-2.512,10.368-3.344c2.065-0.508,3.943-1.019,6.02,0
			c0.665,0.327,1.298,0.96,2.006,1.337C45.84,28.259,48.769,29.356,49.997,31.278z"/>
		<path fill-rule="evenodd" clip-rule="evenodd" d="M83.444,31.947c-0.035,1.304-1.453,1.224-2.676,1.338
			c-3.351,1.441-6.873,3.295-10.033,4.348c-4.817,1.605-9.89-4.945-14.382-5.686c0.228-2.548,3.176-2.022,5.018-2.675
			c3.348-1.186,6.537-3.417,10.033-3.01c1.04,0.121,2.401,0.902,3.345,1.337c1.064,0.492,1.819,1.252,2.675,1.672
			c1.061,0.521,2.383,0.569,3.345,1.003C81.684,30.689,82.631,31.438,83.444,31.947z"/>
		<path fill-rule="evenodd" clip-rule="evenodd" d="M101.503,28.603c0,0.223,0,0.446,0,0.669c-0.445,5.128-1.621,9.527-1.338,15.384
			c-4.141,2.325-8.325,4.606-13.378,6.02c0.615-5.293,0.155-11.662,0.669-17.057c1.706-1.609,4.403-2.095,6.689-3.01
			C96.481,29.675,98.819,27.752,101.503,28.603z"/>
		<path fill-rule="evenodd" clip-rule="evenodd" d="M21.236,32.616c4.492,1.528,7.75,4.291,11.371,6.689
			c0.507,5.625-0.03,12.292,1.003,17.391c-2.118-0.089-4.104-2.035-6.02-3.345c-1.954-1.336-4.027-2.671-5.351-4.348
			C22.676,42.77,21.114,38.535,21.236,32.616z"/>
		<path fill-rule="evenodd" clip-rule="evenodd" d="M65.383,38.97c-0.644,2.031-4.075,1.276-5.016,3.01
			c-2.409,0.394-4.863,1.273-7.36,2.341c-0.464,0.199-0.877,0.828-1.337,1.003c-3.622,1.384-5.898-1.085-9.03-3.01
			c-2.29-1.407-4.691-2.094-6.02-4.013c1.811-2.09,6.096-1.708,8.026-3.679c3.763-0.18,5.662-2.5,9.03-2.007
			c1.309,0.192,4.476,2.167,6.021,3.01C61.84,36.794,63.706,37.861,65.383,38.97z"/>
		<path fill-rule="evenodd" clip-rule="evenodd" d="M85.45,34.957c-0.886,5.134-0.31,11.731-1.004,17.057
			c-4.672,2.241-8.92,4.903-14.381,6.354c0-6.02,0-12.04,0-18.06C75.172,38.502,79.067,35.486,85.45,34.957z"/>
		<path fill-rule="evenodd" clip-rule="evenodd" d="M34.613,40.977c0.223,0,0.446,0,0.669,0c4.421,2.378,8.982,4.619,12.375,8.026
			c0.071,4.145,0.271,8.413,0.334,13.043c0.025,1.842,0.49,3.796-0.334,5.017c-2.445-0.942-4.248-2.854-6.354-4.348
			c-2.024-1.434-4.59-2.524-6.02-4.682C35.425,51.982,34.685,46.813,34.613,40.977z"/>
		<path fill-rule="evenodd" clip-rule="evenodd" d="M67.056,41.646c0.771,5.36,0.118,12.145,0.334,18.06
			c-5.26,2.879-10.691,5.588-16.724,7.692C50.243,61.409,49.988,53.663,50.332,48C55.993,45.97,61.109,43.391,67.056,41.646z"/>
		<path fill-rule="evenodd" clip-rule="evenodd" d="M11.537,44.99c3.863,1.377,6.531,3.948,9.364,6.354
			c0.07,4.165,1.219,9.848,1.337,15.049c-1.777,0.127-3.201-1.85-4.682-3.01c-1.629-1.277-3.152-2.618-4.682-3.679
			C12.852,55.692,11.898,49.773,11.537,44.99z"/>
		<path fill-rule="evenodd" clip-rule="evenodd" d="M99.831,48c-0.575,3.462-0.718,10.191-1.004,15.05
			C97.01,64.959,94,65.743,91.47,67.063c-1.886,0.984-3.474,2.68-5.351,2.676c0.131-5.442-0.42-11.567,0.668-16.053
			C91.129,51.784,94.813,49.225,99.831,48z"/>
		<path fill-rule="evenodd" clip-rule="evenodd" d="M23.242,53.351c4.463,1.446,7.139,4.679,10.702,7.023
			c-0.303,5.988,0.395,10.976,1.003,16.053c-2.132,0.047-3.647-2.293-5.351-3.679c-1.848-1.503-4.123-2.532-5.351-4.348
			C24.247,63.048,22.666,59.278,23.242,53.351z"/>
		<path fill-rule="evenodd" clip-rule="evenodd" d="M84.447,55.358c-0.308,3.838-0.874,10.259-0.669,15.719
			c-4.514,2.621-9.124,5.145-14.046,7.357c-0.719-5.196,0.055-11.746,0.334-17.057C74.865,59.376,78.799,56.511,84.447,55.358z"/>
		<path fill-rule="evenodd" clip-rule="evenodd" d="M35.951,62.381c4.879,1.697,7.763,5.392,12.04,7.692
			c0.188,4.555,1.099,12.292,0.669,17.391c-4.44-2.46-8.181-5.971-12.04-9.364C35.879,73.377,36.591,67.204,35.951,62.381z"/>
		<path fill-rule="evenodd" clip-rule="evenodd" d="M13.209,63.05c0.223,0,0.446,0,0.669,0c3.369,2.094,6.324,4.601,9.03,7.357
			c0.325,4.581,0.025,9.785,1.338,13.378c-1.88,0.033-3.467-2.046-5.017-3.345c-1.675-1.405-3.42-2.845-4.682-4.348
			C14.63,71.216,14.067,66.986,13.209,63.05z"/>
		<path fill-rule="evenodd" clip-rule="evenodd" d="M67.39,63.384c-0.307,6.162,0.74,14.126-1.003,17.057
			c-5.347,2.011-9.209,5.508-15.052,7.023c-0.731-5.065-0.697-10.896-0.669-16.723c4.374-2.728,9.789-4.76,14.717-7.357
			C65.526,63.31,66.737,63.439,67.39,63.384z"/>
		<path fill-rule="evenodd" clip-rule="evenodd" d="M98.158,66.394c-0.024,3.68-0.16,10.077-1.003,14.047
			c-3.681,2.562-7.823,4.662-11.705,7.023c-0.72-4.644-0.421-11.105,0.669-15.05C90.109,70.384,93.67,67.926,98.158,66.394z"/>
		<path fill-rule="evenodd" clip-rule="evenodd" d="M24.58,71.746c3.981,2.15,7.137,5.126,10.368,8.026
			c-0.532,5.344,1.524,9.821,0.669,14.381c-2.021-1.017-3.707-2.555-5.351-4.013c-1.58-1.4-2.927-3.115-4.682-4.348
			C25.365,80.993,24.977,76.364,24.58,71.746z"/>
		<path fill-rule="evenodd" clip-rule="evenodd" d="M83.778,74.421c-0.27,4.858-1.043,9.213-1.003,14.381
			c-2.263,1.398-4.454,2.676-6.688,4.013c-2.09,1.25-4.33,2.836-7.023,3.345c0-4.794,0-9.588,0-14.381
			c2.916-2.004,8.974-5.496,13.043-7.357C82.566,74.21,83.293,74.581,83.778,74.421z"/>
		<path fill-rule="evenodd" clip-rule="evenodd" d="M37.288,81.779c4.417,2.605,8.196,5.851,11.706,9.364
			c-0.207,5.112,0.268,9.543,0.334,14.381c-1.472,0.765-2.139-1.259-3.01-2.007c-2.646-2.272-6.216-4.668-8.696-7.357
			C37.309,91.569,37.205,86.767,37.288,81.779z"/>
		<path fill-rule="evenodd" clip-rule="evenodd" d="M53.007,106.193c-0.446,0-0.892,0-1.337,0c0-5.239,0-10.479,0-15.719
			c5.144-2.438,9.34-5.823,15.386-7.357c-0.108,3.638,0.333,10.54-0.335,14.715C62.602,101.07,57.188,103.016,53.007,106.193z"/>
		<g>
		</g>
	</g>
</g>
</svg>
