<?xml version="1.0" encoding="utf-8"?>
<!-- Generator: Adobe Illustrator 15.0.0, SVG Export Plug-In . SVG Version: 6.00 Build 0)  -->
<!DOCTYPE svg PUBLIC "-//W3C//DTD SVG 1.1//EN" "http://www.w3.org/Graphics/SVG/1.1/DTD/svg11.dtd">
<svg version="1.1" id="Capa_1" xmlns="http://www.w3.org/2000/svg" xmlns:xlink="http://www.w3.org/1999/xlink" x="0px" y="0px"
	 width="113.387px" height="113.386px" viewBox="0 0 113.387 113.386" enable-background="new 0 0 113.387 113.386"
	 xml:space="preserve">
<g id="idC8bD_1_">
	<g>
		<path fill-rule="evenodd" clip-rule="evenodd" d="M53.453,29.343c2.743,0,5.487,0,8.23,0c0.396,0.409,1.455,0.164,2.317,0.232
			c5.624,0.444,10.878,1.603,15.532,3.129c3.877,1.271,7.691,2.967,11.127,4.752c4.137,2.149,8.157,4.766,11.591,7.766
			c0.38,0.332,0.705,0.58,1.159,0.927c0.121,0.093,0.132,0.268,0.231,0.348c2.01,1.622,4.078,3.243,5.563,5.448
			c-1.34,2.06-2.876,3.202-4.636,4.984c-0.989,1.001-2.375,2.352-3.594,3.594c-0.447,0.455-0.808,1.053-1.274,1.043
			c-0.808-0.019-0.822-0.769-1.275-1.275c-0.508-0.568-1.001-0.681-1.391-1.043c-0.304-0.282-0.574-0.866-1.159-1.391
			c-0.499-0.448-1.235-0.777-1.275-1.16c-0.078-0.761,1.133-1.592,1.739-2.202c0.628-0.633,1.796-1.294,1.738-2.086
			c-0.078-1.081-1.587-1.062-2.086-1.971c-2.515-1.884-5.359-3.844-8.577-5.563c-1.864-0.996-3.837-2.031-5.911-2.898
			c-0.808-0.337-1.524-0.546-2.551-0.927c-0.407-0.151-0.785-0.455-1.158-0.58c-1.29-0.43-2.604-0.587-3.941-0.927
			c-0.273-0.07-0.988-0.477-1.391-0.58c-1.556-0.399-3.298-0.654-5.448-0.927c-0.549-0.069-1.66-0.331-2.781-0.463
			c-1.016-0.12-2.283-0.333-2.55-0.116c-0.571,0.463-0.348,2.605-0.348,3.94c0,2.475,0.175,4.508-0.116,6.259
			c-2.056,0.402-4.747,0.161-6.955,0.116c-0.491-1.271-0.232-3.272-0.232-5.216c0-1.897,0.258-3.911-0.348-5.216
			c-0.771-0.075-1.245,0.146-1.738,0.348c-4.058,0.123-8.289,1.019-11.939,2.086c-2.673,0.782-5.441,1.846-7.998,3.014
			c-4.774,2.18-9.461,4.958-13.677,8.345c-0.667,0.537-1.256,1.005-1.275,1.391c-0.032,0.659,1.218,1.565,1.739,2.086
			c0.641,0.641,1.798,1.25,1.739,2.086c-0.05,0.698-1.827,1.855-2.318,2.318c-0.378,0.357-1.765,2.165-2.434,2.203
			c-0.929,0.053-1.875-1.53-2.55-2.203c-2.364-2.351-4.602-4.519-6.955-6.954c0-0.231,0-0.463,0-0.695
			c4.321-4.383,9.005-8.335,14.257-11.591c1.843-1.143,4.156-2.158,5.911-3.245c0.597-0.37,1.308-0.723,1.739-0.928
			c0.27-0.128,0.627-0.094,0.927-0.231c0.962-0.44,1.878-1.002,2.897-1.391c1.054-0.402,2.129-0.687,3.246-1.043
			c0.549-0.175,1.04-0.403,1.623-0.58c2.854-0.867,5.74-1.565,8.809-2.086C48.183,29.847,50.772,29.814,53.453,29.343z"/>
		<path fill-rule="evenodd" clip-rule="evenodd" d="M60.756,84.631c-1.815,0-3.632,0-5.448,0c-0.887-0.569-1.882-1.119-2.55-1.854
			c-1.134-1.248-2.085-3.394-1.623-6.144c0.372-2.21,2.996-4.901,5.447-5.447c1.588-0.354,3.173,0.112,4.869,0.695
			c1.906-1.61,3.367-3.599,5.101-5.332c4.397-4.397,8.606-8.49,13.098-12.981c0.761-0.761,1.989-2.552,2.781-2.55
			c0.592,0.002,0.935,0.683,1.507,1.275c0.547,0.566,1.259,0.778,1.275,1.507c0.011,0.499-1.18,1.639-1.739,2.202
			c-4.598,4.635-9.609,9.505-13.793,13.793c-0.904,0.842-1.683,1.786-2.55,2.665c-0.643,0.651-2.358,1.886-2.55,2.782
			c-0.139,0.649,0.276,1.275,0.348,1.971c0.094,0.913,0.144,2.216-0.116,3.13c-0.091,0.321-0.608,0.896-0.695,1.043
			c-0.108,0.184-0.056,0.487-0.116,0.579C63.281,83.064,62.052,83.863,60.756,84.631z"/>
		<g>
		</g>
	</g>
</g>
</svg>
