<?xml version="1.0" encoding="utf-8"?>
<!-- Generator: Adobe Illustrator 15.0.0, SVG Export Plug-In . SVG Version: 6.00 Build 0)  -->
<!DOCTYPE svg PUBLIC "-//W3C//DTD SVG 1.1//EN" "http://www.w3.org/Graphics/SVG/1.1/DTD/svg11.dtd">
<svg version="1.1" id="Capa_1" xmlns="http://www.w3.org/2000/svg" xmlns:xlink="http://www.w3.org/1999/xlink" x="0px" y="0px"
	 width="113.387px" height="113.386px" viewBox="0 0 113.387 113.386" enable-background="new 0 0 113.387 113.386"
	 xml:space="preserve">
<g>
	<g id="_x36_wC7T9_1_">
		<g>
			<path fill="#000100" d="M47.838,22.493c4.483,0,8.966,0,13.451,0c3.512,0.97,7.243,1.724,10.863,2.585
				c1.312,0.814,3.7,1.589,5.302,2.457c0.615,0.333,1.324,0.513,1.812,0.778c0.824,0.445,1.396,1.303,2.328,1.292
				c1.457-0.02,2.082-1.654,3.234-2.457c2.735-1.32,4.847-2.62,9.182-2.328c1.975,0.131,3.512,0.747,4.915,1.422
				c1.097,0.527,1.582,0.96,2.457,1.681c0.858,0.708,1.87,1.516,2.585,2.458c1.023,1.346,1.391,3.11,2.457,4.266
				c0,2.716,0,5.432,0,8.148c-1.181,1.452-1.589,3.351-2.715,4.785c-0.842,1.068-2.03,1.666-2.847,2.716
				c-3.716,2.272-8.634,3.23-12.546,1.812c-0.493-0.179-1.085-0.606-1.68-0.907c-1.109-0.56-1.662-0.787-2.586-1.551
				c-0.923-0.762-1.965-1.722-2.715-2.845c-0.852-1.27-1.472-2.486-2.07-4.269c-0.433-1.284-0.775-2.128-0.646-4.007
				c0.044-0.664,0.372-1.352,0.259-1.94c-0.192-0.985-1.066-0.926-1.553-1.811c-1.83-0.798-3.659-1.6-5.302-2.586
				c-4.042-1.207-8.707-2.838-13.84-3.234c-2.146-0.165-4.508-0.145-6.725,0c-5.225,0.343-9.953,1.973-13.967,3.362
				c-0.514,0.5-2.012,0.769-2.2,1.812c-0.163,0.911,0.546,1.43,0.777,2.328c0.333,1.304,0.224,3.067,0,4.396
				c-0.225,1.331-0.908,3.368-1.553,4.526c-0.208,0.379-0.637,0.643-0.905,1.035c-0.327,0.479-0.436,1.015-0.647,1.295
				c-0.76,1.001-2.011,1.576-2.973,2.715c-1.01,0.39-1.973,0.624-2.199,1.551c-0.484,1.989,1.947,3.965,2.067,5.691
				c2.075,3.591,4.282,6.896,6.985,9.831c0.681,0.74,1.491,1.356,2.198,2.07c1.704,1.711,3.685,3.242,5.822,4.656
				c0.417,0.274,0.929,0.411,1.163,0.905c0.736,0.34,1.75,0.75,2.587,1.292c1.13,0.735,3.056,1.562,4.527,2.201
				c0.584,0.254,1.31,0.358,2.068,0.646c0.738,0.281,1.468,0.842,1.94,0.777c0.79-0.11,1.583-1.508,2.07-2.2
				c0.681-0.965,1.258-1.641,1.811-2.457c1.186-0.885,2.431-1.709,3.623-2.586c1.871-0.552,3.936-1.537,6.208-1.552
				c2.215-0.017,4.234,0.97,6.205,1.293c1.146,1.012,2.541,1.771,3.752,2.716c0.931,1.27,1.917,2.481,2.847,3.752
				c0.146,1.229,0.994,2.433,1.294,3.751c0.744,3.302-0.557,6.51-1.294,9.054c-1.146,1.079-1.739,2.534-2.847,3.622
				c-0.206,0.201-0.626,0.285-0.905,0.516c-0.242,0.199-0.426,0.628-0.645,0.777c-1.405,0.948-3.276,1.319-4.786,2.328
				c-2.372,0-4.744,0-7.113,0c-1.385-0.942-3.137-1.523-4.657-2.328c-1.398-1.28-2.592-2.595-3.753-4.269
				c-0.876-1.264-1.413-3.155-1.94-5.173c-0.391-0.219-0.756-0.609-1.162-0.775c-0.502-0.208-1.032-0.103-1.553-0.262
				c-0.72-0.218-1.538-0.737-2.327-1.033c-1.591-0.595-2.655-1.037-4.011-1.682c-0.265-0.126-0.613-0.262-0.905-0.388
				c-0.289-0.124-0.688-0.14-0.905-0.259c-0.529-0.291-0.988-0.844-1.552-1.164c-0.959-0.546-1.72-0.941-2.587-1.55
				c-0.26-0.185-0.623-0.212-0.905-0.391c-0.554-0.353-1.061-0.794-1.551-1.163c-2.054-1.549-4.19-3.095-5.821-5.044
				c-1.463-1.222-2.822-2.651-4.009-4.139c-1.218-1.525-2.205-3.208-3.491-4.656c-0.492-1.275-1.175-2.36-1.94-3.362
				c-0.322-1.353-1.119-2.153-1.68-3.494C22.25,57.055,22.02,56,21.582,54.956c-0.084-0.206-0.284-0.383-0.387-0.647
				c-0.272-0.696-0.458-1.502-1.165-1.81c-0.804-0.354-1.796-0.104-2.586-0.389c-0.513-0.184-1.045-0.646-1.551-0.904
				c-1.162-0.594-1.752-0.9-2.717-1.683c-1.431-1.161-2.709-2.688-3.621-4.526c-0.41-0.827-0.544-1.865-1.294-2.586
				c0-2.413,0-4.829,0-7.242c0.588-0.556,0.728-1.43,1.035-2.07c0.508-1.052,1.175-2.143,1.812-2.974
				c1.565-2.045,3.611-3.419,6.077-4.397c2.213-0.877,6.431-1.385,9.182-0.389c0.295,0.108,0.531,0.469,0.906,0.648
				c0.409,0.197,0.908,0.196,1.292,0.387c0.987,0.492,1.605,1.551,2.847,1.552c0.783,0.001,1.717-0.891,2.585-1.293
				c0.878-0.408,1.971-0.611,2.844-1.035c0.345-0.168,0.526-0.43,0.777-0.517c0.808-0.285,1.75-0.292,2.585-0.519
				c0.825-0.223,1.564-0.594,2.329-0.776C44.311,23.365,46.501,23.226,47.838,22.493z"/>
		</g>
	</g>
</g>
</svg>
