<?xml version="1.0" encoding="utf-8"?>
<!-- Generator: Adobe Illustrator 15.0.0, SVG Export Plug-In . SVG Version: 6.00 Build 0)  -->
<!DOCTYPE svg PUBLIC "-//W3C//DTD SVG 1.1//EN" "http://www.w3.org/Graphics/SVG/1.1/DTD/svg11.dtd">
<svg version="1.1" id="Capa_1" xmlns="http://www.w3.org/2000/svg" xmlns:xlink="http://www.w3.org/1999/xlink" x="0px" y="0px"
	 width="113.387px" height="113.386px" viewBox="0 0 113.387 113.386" enable-background="new 0 0 113.387 113.386"
	 xml:space="preserve">
<g>
	<g id="n8vfnr_1_">
		<g>
			<path fill="#000100" d="M93.698,71.163c0.097-1.044,0.623-1.964,0.932-2.908c0.974-2.981,1.655-6.399,1.861-10.125
				c0.844-15.242-6.143-26.492-14.196-33.396c-2.757-2.365-6.186-4.525-9.89-6.167c-1.845-0.818-3.879-1.388-6.052-1.979
				c-6.104-1.66-14.382-1.9-21.062,0c-3.763,1.071-7.601,2.842-10.706,4.771c-6.496,4.038-11.778,9.989-15.243,17.222
				c-1.677,3.5-2.923,7.714-3.49,12.451c-0.566,4.724-0.197,9.938,0.93,14.547c1.964,8.026,6.483,14.937,11.986,20.015
				c2.652,2.448,5.617,4.654,9.425,6.516c2.179,1.063,5.77,2.417,8.844,3.144c1.1,0.26,2.59,0.673,3.375,0.581
				c0.969-0.112,1.65-1.192,3.024-1.163c1.742,0.038,3.312,1.568,3.375,3.259c0.082,2.238-2.619,4.402-5.12,3.141
				c-0.434-0.218-0.657-0.645-1.163-0.814c-1.172-0.391-2.464-0.344-3.608-0.58C34.99,97.2,25.922,90.432,19.808,81.988
				c-2.296-3.168-4.332-6.64-5.702-10.588c-2-0.872-3.746-2.024-5.004-3.84c-4.382-6.331-3.739-18.154,1.513-23.159
				c0.771-0.734,1.704-1.149,2.56-1.746c4.27-13.25,13.224-23.043,25.716-28.392c4.351-1.863,9.593-3.051,15.127-3.375
				c6.156-0.361,11.958,0.766,16.756,2.443c4.85,1.695,8.953,4.105,12.45,6.749c5.562,4.204,9.904,9.22,13.032,15.709
				c0.845,1.751,1.715,3.815,2.443,5.935c0.111,0.321,0.12,0.745,0.232,0.931c0.317,0.521,0.995,0.641,1.745,1.164
				c0.611,0.427,1.339,1.149,1.745,1.629c5.557,6.569,4.602,20.875-2.677,24.789C98.262,71.032,96.242,71.492,93.698,71.163z"/>
			<path fill="#000100" d="M93.698,51.496c-3.596-0.248-7.476-1.479-10.938-3.024c-3.864-1.727-7.153-3.981-9.076-7.216
				c-0.896-1.505-1.625-3.391-1.396-6.282c0.069-0.872,0.312-1.49,0.582-2.328c-0.649-0.031-1.241,0.881-1.746,1.396
				c-3.831,3.91-7.858,7.586-12.8,10.706c-4.825,3.046-10.348,5.379-16.988,6.632c-3.663,0.691-8.239,1.045-12.566,1.63
				c-4.638,0.626-8.09,2.147-9.31,6.168c-0.598-0.545-0.347-1.479-0.349-2.097c-0.095-17.729,7.172-28.695,19.083-34.675
				c2.081-1.044,4.311-1.884,6.75-2.56c4.151-1.15,9.074-1.922,14.778-1.514c2.423,0.173,4.848,0.75,7.099,1.396
				c10.644,3.053,18.522,9.602,23.156,18.733C91.908,42.277,93.346,46.622,93.698,51.496z"/>
			<path fill="#000100" d="M41.45,54.056c1.736-0.044,3.546,0.51,4.772,1.513c0.897,0.735,1.563,1.756,2.094,3.025
				c0.438,1.055,0.894,2.855,0.465,4.772c-0.535,2.386-2.989,5.036-5.586,5.586c-0.913,0.193-2.207,0.267-3.374,0
				c-1.613-0.369-4.119-2.313-4.887-4.073c-0.883-2.022-0.784-5.214,0.231-7.101c0.789-1.463,2.069-2.587,3.724-3.258
				C39.749,54.173,40.129,54.089,41.45,54.056z"/>
			<path fill="#000100" d="M70.076,54.056c2.227-0.045,4.785,1.131,6.052,2.908c0.832,1.171,1.767,3.854,1.279,6.286
				c-0.122,0.607-0.893,2.235-1.279,2.792c-1.218,1.747-4.301,3.654-7.68,2.91c-0.201-0.045-1.137-0.397-1.514-0.582
				c-1.897-0.932-3.573-3.301-3.957-5.004c-0.838-3.741,1.015-6.757,3.025-8.146c0.702-0.486,1.865-1.044,2.561-1.164
				C68.935,53.993,69.52,54.068,70.076,54.056z"/>
			<path fill="#000100" d="M66.354,80.124c0.078,0,0.153,0,0.231,0c0.476,0.651,0.58,1.683,0.467,2.561
				c-0.546,4.172-5.936,7.283-11.754,6.749c-3.378-0.312-6.211-1.944-8.027-4.188c-0.994-1.229-2.045-2.7-1.164-4.887
				c1.132,0.35,2.361,0.983,3.84,1.395c3.945,1.101,9.836,0.982,13.615-0.348C64.787,80.972,65.725,80.712,66.354,80.124z"/>
		</g>
	</g>
</g>
</svg>
