<?xml version="1.0" encoding="utf-8"?>
<!-- Generator: Adobe Illustrator 15.0.0, SVG Export Plug-In . SVG Version: 6.00 Build 0)  -->
<!DOCTYPE svg PUBLIC "-//W3C//DTD SVG 1.1//EN" "http://www.w3.org/Graphics/SVG/1.1/DTD/svg11.dtd">
<svg version="1.1" id="Capa_1" xmlns="http://www.w3.org/2000/svg" xmlns:xlink="http://www.w3.org/1999/xlink" x="0px" y="0px"
	 width="113.387px" height="113.386px" viewBox="0 0 113.387 113.386" enable-background="new 0 0 113.387 113.386"
	 xml:space="preserve">
<g>
	<g id="RdR6zI_1_">
		<g>
			<path fill="#000100" d="M71.799,44.161c2.521,0.292,6.129,0.021,8.458,0.119c0.258,1.355,0.117,3.317,0.117,5.24
				c0,1.934-0.082,3.9,0.119,5.242c1.466,0.635,2.966,0.877,4.408,1.429c6.706,2.566,11.895,7.499,14.89,14.057
				c0.604,1.32,1.179,2.776,1.549,4.288c0.658,2.684,1.247,5.354,0.952,9.053c-0.122,1.543-0.571,3.274-0.952,4.766
				c-1.842,7.215-6.393,12.625-12.148,16.081c-2.354,1.412-4.953,2.701-7.863,3.335c-10.941,2.383-20.215-2.156-25.376-7.504
				c-0.919-0.955-1.83-1.893-2.619-2.979c-0.768-1.057-1.232-2.37-2.264-3.336c-12.309,0-24.618,0-36.926,0
				c-0.278-16.278-0.04-33.075-0.12-49.554c2.547-0.352,5.91,0.112,8.458-0.237c0.621-7.168-0.571-13.46,0.476-19.179
				c0.953-5.205,3.832-9.591,7.029-12.744c3.444-3.399,7.871-5.624,13.341-6.434c1.856-0.274,4.864-0.256,6.908-0.119
				c7.438,0.499,12.165,4.6,16.203,8.815c0.581,0.969,1.284,1.843,1.906,2.858c1.775,2.907,3.038,6.533,3.335,10.958
				C72.023,33.421,71.326,38.784,71.799,44.161z M59.648,28.556c-0.269-3.699-2.345-6.307-4.409-8.1
				c-0.671-0.583-1.463-1.195-2.144-1.548c-3.185-1.655-8.415-1.466-11.436,0c-3.64,1.764-6.543,5.187-6.909,10.006
				c-0.347,4.562,0.158,10.138,0.118,15.247c7.942,0.197,16.716,0.198,24.659,0C59.502,38.56,59.983,33.161,59.648,28.556z
				 M68.345,64.529c-2.322,0.937-4.636,2.563-6.313,4.29c-2.846,2.92-5.354,8.084-5.007,13.697
				c0.405,6.507,4.369,12.023,9.414,14.892c2.241,1.271,5.66,2.263,8.814,2.263c5.239,0,9.718-2.272,12.983-5.479
				c2.833-2.78,5.281-7.607,5.24-12.984c-0.03-4.173-1.458-7.148-3.096-9.647c-3.171-4.834-8.729-8.798-16.559-8.221
				C71.761,63.493,69.866,63.918,68.345,64.529z"/>
			<path fill="#000100" d="M90.144,75.371c-6.077,6.669-12.365,13.127-18.583,19.653c-0.679-0.208-1.081-0.85-1.548-1.31
				c-3.177-3.13-6.771-6.271-9.89-9.649c1.785-1.947,3.609-3.855,5.481-5.717c2.006,1.567,3.592,3.555,5.599,5.122
				c4.555-4.34,8.64-9.148,13.104-13.581c1.081,0.519,2.021,1.864,2.979,2.74C88.294,73.555,89.383,74.308,90.144,75.371z"/>
		</g>
	</g>
</g>
</svg>
