<?xml version="1.0" encoding="utf-8"?>
<!-- Generator: Adobe Illustrator 15.0.0, SVG Export Plug-In . SVG Version: 6.00 Build 0)  -->
<!DOCTYPE svg PUBLIC "-//W3C//DTD SVG 1.1//EN" "http://www.w3.org/Graphics/SVG/1.1/DTD/svg11.dtd">
<svg version="1.1" id="Capa_1" xmlns="http://www.w3.org/2000/svg" xmlns:xlink="http://www.w3.org/1999/xlink" x="0px" y="0px"
	 width="113.387px" height="113.386px" viewBox="0 0 113.387 113.386" enable-background="new 0 0 113.387 113.386"
	 xml:space="preserve">
<g>
	<path fill-rule="evenodd" clip-rule="evenodd" fill="#1D1E1C" d="M85.458,64.972c-2.343,2.286-3.804,6.795-3.247,10.021
		l3.781,21.908c0.557,3.226-1.357,4.618-4.254,3.095L62.063,89.648c-2.896-1.523-7.637-1.522-10.533,0.001L31.891,99.981
		c-2.896,1.523-4.816,0.131-4.267-3.096l3.732-21.904c0.55-3.227-0.918-7.735-3.263-10.019l-15.92-15.514
		c-2.345-2.283-1.612-4.537,1.627-5.007l21.971-3.189c3.238-0.47,7.072-3.257,8.518-6.193l9.814-19.926
		c1.445-2.937,3.815-2.938,5.266-0.004l9.851,19.934c1.45,2.935,5.286,5.722,8.525,6.194L99.71,44.46
		c3.239,0.473,3.972,2.729,1.63,5.016L85.458,64.972z"/>
	<path fill="none" stroke="#FFFFFF" stroke-width="0.2561" stroke-miterlimit="10" d="M85.458,64.972
		c-2.343,2.286-3.804,6.795-3.247,10.021l3.781,21.908c0.557,3.226-1.357,4.618-4.254,3.095L62.063,89.648
		c-2.896-1.523-7.637-1.522-10.533,0.001L31.891,99.981c-2.896,1.523-4.816,0.131-4.267-3.096l3.732-21.904
		c0.55-3.227-0.918-7.735-3.263-10.019l-15.92-15.514c-2.345-2.283-1.612-4.537,1.627-5.007l21.971-3.189
		c3.238-0.47,7.072-3.257,8.518-6.193l9.814-19.926c1.445-2.937,3.815-2.938,5.266-0.004l9.851,19.934
		c1.45,2.935,5.286,5.722,8.525,6.194L99.71,44.46c3.239,0.473,3.972,2.729,1.63,5.016L85.458,64.972z"/>
</g>
</svg>
