<?xml version="1.0" encoding="utf-8"?>
<!-- Generator: Adobe Illustrator 15.0.0, SVG Export Plug-In . SVG Version: 6.00 Build 0)  -->
<!DOCTYPE svg PUBLIC "-//W3C//DTD SVG 1.1//EN" "http://www.w3.org/Graphics/SVG/1.1/DTD/svg11.dtd">
<svg version="1.1" id="Capa_1" xmlns="http://www.w3.org/2000/svg" xmlns:xlink="http://www.w3.org/1999/xlink" x="0px" y="0px"
	 width="113.387px" height="113.386px" viewBox="0 0 113.387 113.386" enable-background="new 0 0 113.387 113.386"
	 xml:space="preserve">
<g>
	<g id="cyJRiu_1_">
		<g>
			<path fill="#000100" d="M7.631,93.771c0-0.818,0-1.636,0-2.452c0.167-0.607,0.318-1.619,0.446-2.342
				c0.992-5.576,2.391-10.424,4.236-15.161c2.012-5.164,4.529-10.189,7.247-14.94c2.617-4.576,5.641-9.096,9.029-13.047
				C38.918,33.781,51.192,24.454,67.83,18.627c9.505-3.329,21.024-5.285,33.221-5.351c1.909-0.009,3.779-0.174,5.352,0.224
				c-0.212,0.49-0.826,0.507-1.227,0.668c-0.447,0.18-0.899,0.357-1.337,0.558C86.68,22.525,71.841,35.453,70.394,58.763
				c-0.251,4.044,0.115,7.484,0.557,11.152c0.942,7.809,3.25,14.986,5.797,21.291c0.4,0.991,1.014,1.964,1.114,2.787
				c0.104,0.852-0.101,1.729-0.223,2.564c-0.104,0.721-0.165,1.541-0.445,2.229c-5.368,0.432-11.002,0.892-16.721,0.892
				c-17.518,0-35.555,0.302-51.504-1.337C8.457,96.884,8.14,95.232,7.631,93.771z M101.162,14.168
				c-0.818,0.206-1.681,0.487-2.229,0.78c1.411,0.455,3.139-0.531,4.571-0.78C103.004,13.519,101.903,13.983,101.162,14.168z
				 M95.588,13.945c-1.517,0.098-3.359,0.339-4.904,0.558c-4.619,0.656-8.79,1.442-12.933,2.453
				c-5.378,1.312-10.562,3.101-15.272,5.239c-28.037,12.723-45.182,37.376-51.948,71.13c0.8,0.106,1.873,0.481,2.563,0.334
				c1.291-5.13,2.438-10.427,4.013-15.051c0.937-2.753,1.996-5.668,3.121-8.36c0.498-1.188,1.029-2.371,1.561-3.568
				c0.511-1.145,1.104-2.358,1.673-3.455c9.341-18.012,22.672-31.822,41.136-40.585c4.591-2.178,9.736-4.043,15.049-5.351
				c4.761-1.172,10.009-2.19,15.385-2.563c0.679-0.047,1.487-0.019,2.117-0.447C97.001,13.731,96.079,13.914,95.588,13.945z
				 M92.356,16.732c0.957,0.597,1.793-0.017,2.453-0.223c0.813-0.255,1.782-0.252,2.228-0.781
				C95.265,15.413,93.801,16.353,92.356,16.732z M96.926,16.844c-3.026,1.605-6.231,3.496-9.253,5.684
				c-6.254,4.532-12.053,9.805-15.941,16.388c-0.341,0.577-0.595,1.235-0.891,1.784c-0.102,0.186-0.361,0.284-0.446,0.446
				c-1.694,3.191-2.887,6.676-3.791,10.59c-1.372,5.952-1.765,12.75-1.002,19.737c0.924,8.491,3.091,16.245,5.795,23.076
				c0.812-0.19,1.958-0.048,2.676-0.332c-1.924-5.004-3.464-10.274-4.794-15.831c-1.346-5.635-2.275-11.841-1.894-18.731
				c0.61-11.038,4.856-19.488,10.146-26.312c5.021-6.485,11.494-11.379,18.615-15.496c0.315-0.183,1.45-0.549,0.891-1.003
				C97.001,16.844,96.964,16.844,96.926,16.844z M86.223,18.739c-0.573,0.159-0.998,0.215-1.113,0.669
				c2.053,0.01,3.375-0.713,4.683-1.449C88.33,17.68,87.366,18.424,86.223,18.739z M79.312,21.638
				c1.389,0.19,2.891-0.448,3.791-1.115C81.555,20.174,80.088,20.846,79.312,21.638z M75.968,22.752
				c-0.474,0.641-1.765,0.465-2.118,1.227c1.173,0.454,2.166-0.201,2.677-0.447c0.58-0.278,1.141-0.27,1.448-0.669
				C77.546,22.357,76.74,22.916,75.968,22.752z M68.276,26.988c0.54,0.241,1.32-0.137,2.118,0c0.652-0.647,1.811-0.79,2.34-1.56
				C70.855,25.126,69.208,25.978,68.276,26.988z M63.148,30.111c0.783-0.038,1.626,0.189,2.34,0c0.37-0.098,0.847-0.542,1.228-0.78
				c0.446-0.282,0.967-0.513,1.115-0.893C65.592,27.876,64.172,29.086,63.148,30.111z M60.807,31.67
				c-0.363,0.075-0.882,0.528-1.228,0.781c-0.398,0.293-0.971,0.646-1.004,1.115c0.764-0.132,1.792,0.215,2.565,0
				c0.413-0.114,0.642-0.573,1.004-0.892c0.364-0.319,1.082-0.485,0.891-1.004C62.228,32.028,61.477,31.533,60.807,31.67z
				 M55.454,36.018c-0.93,0.742-1.802,1.543-2.562,2.453c0.828,0.25,2.109,0.045,3.12,0.112c0.509-0.276,0.734-0.82,1.116-1.226
				c0.373-0.397,1.054-0.66,1.116-1.337C57.313,36.018,56.383,36.018,55.454,36.018z M49.435,42.373
				c-0.856,1.075-1.768,2.097-2.452,3.345c1.011,0.252,2.483,0.043,3.679,0.111c0.55-0.406,0.827-1.176,1.225-1.783
				c0.425-0.647,1.025-1.173,1.116-1.784C51.903,42.075,50.129,42.056,49.435,42.373z M43.973,50.734
				c-0.992,1.648-2.084,3.782-2.563,5.574c1.396,0.161,3.013-0.015,4.349,0.112c0.554-0.766,0.863-1.724,1.225-2.677
				c0.361-0.958,0.723-1.971,1.115-2.899C46.94,50.591,45.316,50.803,43.973,50.734z M39.292,63.449
				c-0.023-0.133-0.125-0.068-0.223,0c-1.005,2.936-1.72,6.752-2.006,10.034c1.571,0.188,3.889,0.178,5.462,0
				c0.452-3.376,0.766-6.891,1.561-9.923C42.706,63.304,40.856,63.519,39.292,63.449z M36.169,82.288
				c-0.251,3.951-0.499,8.491-0.223,12.6c1.949,0.025,4.184,0.344,6.02,0.112c0.043-3.878-0.017-9.067,0-12.934
				c-1.6-0.257-3.676-0.04-5.463-0.111C36.344,82.017,36.232,82.128,36.169,82.288z"/>
		</g>
	</g>
</g>
</svg>
