<?xml version="1.0" encoding="utf-8"?>
<!-- Generator: Adobe Illustrator 15.0.0, SVG Export Plug-In . SVG Version: 6.00 Build 0)  -->
<!DOCTYPE svg PUBLIC "-//W3C//DTD SVG 1.1//EN" "http://www.w3.org/Graphics/SVG/1.1/DTD/svg11.dtd">
<svg version="1.1" id="Capa_1" xmlns="http://www.w3.org/2000/svg" xmlns:xlink="http://www.w3.org/1999/xlink" x="0px" y="0px"
	 width="113.387px" height="113.386px" viewBox="0 0 113.387 113.386" enable-background="new 0 0 113.387 113.386"
	 xml:space="preserve">
<g>
	<g>
		<g>
			<g id="CfzyHx_1_">
				<g>
					<path fill="#000100" d="M101.115,49.502c1.31,0.028,2.687-0.083,4.426-0.081c0.824,0.001,2.104,0.036,2.494,0.322
						c0.756,0.552,0.863,2.703,0.242,3.459c-0.729,0.89-2.096,0.295-2.979,0.886c0.099,0.772,0.672,1.602,0.806,2.576
						c0.057,0.417-0.042,1.091,0,1.607c0.254,3.179,0.807,6.83,0.807,11.188c0,1.839,0,3.978,0,6.198
						c0,1.996,0.313,4.657-0.244,5.874c-0.973,2.127-4.319,1.285-6.92,1.447c-0.655-0.396-1.207-0.497-1.608-1.046
						c-1.079-1.476-0.185-4.642-0.481-7.082c-11.213-0.186-22.772-0.025-34.117-0.08c-0.397,2.021,0.297,4.607-0.158,6.276
						c-0.221,0.802-0.955,1.613-1.771,1.851c-1.392,0.403-3.763-0.136-5.392,0.081c-0.843-0.456-1.664-0.957-1.931-1.852
						c-0.258-0.866-0.08-2.253-0.08-3.54c0-3.559-0.17-7.314,0-10.864c0.084-1.747,0.375-3.482,0.482-5.149
						c0.182-2.81,0.207-5.459,1.125-7.404c-0.928-0.6-2.463-0.243-3.056-1.045c-0.458-0.624-0.437-2.192-0.08-2.898
						c0.479-0.948,1.44-0.751,2.815-0.724c1.523,0.03,3.05-0.079,4.344,0c0.361-0.555,0.467-1.266,0.645-1.932
						c0.523-1.97,0.982-4.105,1.527-6.116c0.395-1.455,0.592-2.763,1.208-3.943c0.663-1.274,1.735-2.566,3.058-3.299
						c0.471-0.261,1.272-0.625,1.932-0.725c0.414-0.062,1.231-0.06,1.607-0.08c1.528-0.084,3.104,0.065,4.666,0.081
						c4.678,0.045,9.342-0.081,13.92-0.081c1.232,0,2.659-0.012,3.942,0.081c1.581,0.111,2.776,0.853,3.623,1.608
						c0.798,0.713,1.465,1.472,2.012,2.656c0.111,0.244,0.327,0.509,0.401,0.724c0.205,0.587,0.234,1.289,0.402,1.933
						c0.149,0.581,0.431,1.131,0.562,1.688c0.299,1.248,0.562,2.479,0.887,3.703C100.558,47.042,100.808,48.28,101.115,49.502z
						 M66.839,38.558c-0.837,1.024-0.968,2.489-1.368,4.023c-0.447,1.72-1.027,3.735-1.447,5.392c-0.117,0.459-0.115,1-0.24,1.449
						c-0.176,0.627-0.383,0.968-0.322,1.449c0.135,1.086,1.365,2.173,2.494,2.654c1.675,0.715,4.867,0.402,7.562,0.402
						c4.58,0,9.245,0,13.68,0c2.547,0,6.305,0.359,8.045-0.402c0.506-0.221,1.002-0.611,1.449-1.046
						c0.357-0.346,0.971-1.189,0.965-1.688c-0.01-1.003-0.457-2.188-0.724-3.219c-0.601-2.341-1.157-4.849-1.771-7.082
						c-0.228-0.831-0.467-1.593-1.047-2.013c-8.852-0.134-18.266-0.134-27.113,0C66.939,38.495,66.842,38.479,66.839,38.558z
						 M62.011,63.746c-0.963,1.438-0.804,3.798,0.403,5.07c1.461,1.542,4.404,1.373,5.793-0.08c0.607-0.638,1.105-1.984,1.046-2.897
						c-0.142-2.155-1.945-3.766-3.942-3.701C63.711,62.188,62.651,62.791,62.011,63.746z M92.505,63.989
						c-0.556,0.923-0.832,2.404-0.401,3.54c0.35,0.922,1.438,1.952,2.333,2.253c1.955,0.652,4.521-0.318,5.147-2.494
						c0.859-2.972-1.449-5.227-3.78-5.15C94.046,62.193,93.131,62.946,92.505,63.989z M73.998,63.264
						c-0.149,0.337-0.323,3.674,0,4.345c0.41,0.852,2.173,0.646,3.459,0.646c2.52,0,4.435-0.088,6.679-0.08
						c1.08,0.003,2.521,0.28,2.979-0.323c0.56-0.736,0.375-4.437-0.082-4.908c-0.437-0.452-1.885-0.321-2.815-0.321
						c-2.573,0-4.004,0-6.274,0c-1.062,0-2.656-0.104-3.219,0.081C74.44,62.793,74.115,63,73.998,63.264z"/>
					<path fill="#000100" d="M77.138,42.662c-0.274-0.974-0.192-2.153,0.724-2.414c0.782-0.224,2.155,0,3.217,0
						c1.074,0,2.545-0.112,2.896,0.322c0.359,0.44,0.391,1.862,0,2.253c-0.398,0.397-1.926,0.241-3.138,0.241
						C79.297,43.064,77.703,43.272,77.138,42.662z"/>
				</g>
			</g>
			<circle fill="#FFFFFF" cx="80.469" cy="34.359" r="9.303"/>
			<g>
				<g>
					<path fill="#000100" d="M88.477,53.474c0-4.165-3.376-7.541-7.54-7.541c-4.165,0-7.542,3.375-7.542,7.541
						c0,0.173,0.008,0.347,0.02,0.518c5.017,0,10.031,0,15.045,0C88.469,53.821,88.477,53.647,88.477,53.474z"/>
					<path fill="#000100" d="M66.653,48.416"/>
					<path fill="#000100" d="M66.074,50.046c0,1.104,0,2.209,0,3.312c0.293,0.233,0.596,0.457,0.945,0.633c1.444,0,2.889,0,4.333,0
						c-0.009-0.171-0.014-0.345-0.014-0.518c0-5.3,4.297-9.595,9.597-9.595c5.299,0,9.596,4.295,9.596,9.595
						c0,0.173-0.006,0.347-0.014,0.518c1.285,0,2.571,0,3.857,0c0.408-0.317,0.896-0.279,1.104-0.737
						c0.203-0.449,0.19-1.271,0.104-1.946c-0.031-0.252-0.213-0.464-0.262-0.736c-0.041-0.216,0.026-0.454,0-0.685
						c-0.021-0.159-0.119-0.304-0.158-0.473c-0.045-0.199-0.014-0.415-0.055-0.579c-0.061-0.248-0.238-0.458-0.313-0.685
						c-0.164-0.501-0.109-1.061-0.474-1.368c-0.021-0.51-0.23-0.947-0.422-1.314c-0.312-0.607-0.525-1.302-0.947-1.894
						c-0.119-0.419-0.373-0.773-0.578-1.157c-0.241-0.455-0.689-0.886-0.946-1.368c-0.491-0.924-1.483-1.585-2.155-2.42
						c-0.355-0.064-0.539-0.301-0.791-0.473c-0.236-0.163-0.562-0.419-0.842-0.421c-0.439-0.004-0.742,0.497-1.052,0.788
						c-0.103,0.099-0.196,0.267-0.263,0.316c-0.291,0.217-0.598,0.282-0.844,0.473c-0.062,0.049-0.051,0.169-0.104,0.211
						c-0.166,0.13-0.512,0.085-0.579,0.368c-0.679,0.216-1.247,0.542-1.843,0.844c-0.369-0.13-0.657,0.16-1.051,0.209
						c-0.449,0.056-1.336,0.009-1.998-0.054c-0.922-0.084-1.737-0.546-2.473-0.63c-0.561-0.53-1.16-0.695-1.789-1.211
						c-0.294-0.24-1.146-1.289-1.631-1.313c-0.209-0.013-0.666,0.246-0.947,0.421c-0.494,0.306-1.01,0.914-1.525,1.314
						c-0.407,0.316-0.865,0.996-1.264,1.473c-0.137,0.164-0.271,0.27-0.367,0.421c-0.063,0.099-0.041,0.228-0.104,0.315
						c-0.146,0.198-0.351,0.409-0.528,0.684c-0.105,0.167-0.164,0.346-0.262,0.525c-0.248,0.458-0.588,0.982-0.842,1.525
						c-0.086,0.184-0.12,0.393-0.21,0.579c-0.086,0.175-0.249,0.304-0.315,0.474c-0.102,0.257-0.111,0.562-0.212,0.841
						c-0.088,0.251-0.288,0.49-0.366,0.738"/>
				</g>
				<g>
					<g id="vtX1m3_2_">
						<g>
							<path fill="#1D1E1C" stroke="#000100" stroke-width="0.1397" stroke-miterlimit="10" d="M79.349,6.345
								c0.935-0.232,2.84-0.232,3.774,0C81.864,6.345,80.608,6.345,79.349,6.345z"/>
							<path fill="#1D1E1C" stroke="#000100" stroke-width="0.1397" stroke-miterlimit="10" d="M79.629,14.452
								c0.701-0.233,2.371-0.233,3.072,0C81.68,14.452,80.653,14.452,79.629,14.452z"/>
							<path fill="#1D1E1C" stroke="#000100" stroke-width="0.1397" stroke-miterlimit="10" d="M95.42,14.871
								c0.232,0.286,0.232,1.529,0,1.815C95.42,16.083,95.42,15.475,95.42,14.871z"/>
							<path fill="#1D1E1C" stroke="#000100" stroke-width="0.1397" stroke-miterlimit="10" d="M83.821,16.128
								c0.325,0,0.65,0,0.979,0c0,0.28,0,0.559,0,0.839c-0.038,0.474,0.106,1.133-0.142,1.397c-0.744,0-1.489,0-2.235,0
								c0-0.094,0-0.187,0-0.28c0.461,0.287,1.416,0.076,2.097,0.14c0.275-0.377,0.083-1.221,0.141-1.815
								C84.683,16.012,83.798,16.524,83.821,16.128z"/>
							<path fill="#1D1E1C" stroke="#000100" stroke-width="0.1397" stroke-miterlimit="10" d="M82.283,16.687
								c0.045,0,0.094,0,0.14,0c0,0.467,0,0.933,0,1.397c0,0.094,0,0.187,0,0.28c-0.031,0.108-0.002,0.275-0.14,0.279
								c0-0.093,0-0.187,0-0.279c0-0.094,0-0.187,0-0.28C82.283,17.619,82.283,17.154,82.283,16.687z"/>
							<path fill="#1D1E1C" stroke="#000100" stroke-width="0.1397" stroke-miterlimit="10" d="M77.393,17.106
								c0.046,0,0.094,0,0.141,0c0,0.141,0,0.279,0,0.419c-0.095,0.606-0.006,1.03,0.699,0.839c0,0.047,0,0.093,0,0.14
								c-0.048,0-0.095,0-0.141,0c-0.247,0.032-0.699-0.141-0.561,0.28c-0.107-0.031-0.162-0.118-0.14-0.28c0-0.093,0-0.187,0-0.28
								c0-0.046,0-0.092,0-0.14C77.393,17.758,77.393,17.432,77.393,17.106z"/>
							<path fill="#1D1E1C" stroke="#000100" stroke-width="0.1397" stroke-miterlimit="10" d="M77.393,18.224
								c0,0.094,0,0.188,0,0.28c-0.324,0-0.652,0-0.979,0c-0.187,0-0.373,0-0.56,0C76.09,18.131,77.145,18.582,77.393,18.224z"/>
							<path fill="#1D1E1C" stroke="#000100" stroke-width="0.1397" stroke-miterlimit="10" d="M78.092,18.504
								c-0.549,0.057-0.426,0.786-0.42,1.396c-0.047,0-0.094,0-0.141,0c0-0.372,0-0.744,0-1.116
								C77.393,18.364,77.845,18.537,78.092,18.504z"/>
							<path fill="#1D1E1C" stroke="#000100" stroke-width="0.1397" stroke-miterlimit="10" d="M80.048,19.203
								c0-0.233,0-0.466,0-0.699c0.698,0,1.397,0,2.097,0c0,0.652,0,1.304,0,1.957c-0.699,0-1.396,0-2.097,0
								C80.048,20.042,80.048,19.623,80.048,19.203z"/>
							<path fill="#1D1E1C" stroke="#000100" stroke-width="0.1397" stroke-miterlimit="10" d="M84.8,18.643
								c0.062-0.23,1.055-0.23,1.116,0c-0.279,0-0.559,0-0.838,0c-0.379-0.1,0.101,0.659-0.278,0.56
								C84.8,19.016,84.8,18.831,84.8,18.643z"/>
							<path fill="#1D1E1C" stroke="#000100" stroke-width="0.1397" stroke-miterlimit="10" d="M76.135,18.643
								c0.094,0,0.188,0,0.279,0c0.371,0.001,0.799-0.053,0.979,0.141c0,0.604,0,1.211,0,1.815
								c-0.107,0.031-0.275,0.004-0.279,0.141c-0.232,0-0.465,0-0.697,0c-0.326,0-0.653,0-0.979,0
								c0.245-0.565-0.29-1.075-0.141-1.957C75.543,18.704,76.117,18.953,76.135,18.643z"/>
							<path fill="#1D1E1C" stroke="#000100" stroke-width="0.1397" stroke-miterlimit="10" d="M91.228,18.784
								c0.233,0.47,0.233,1.904,0,2.375C91.228,20.367,91.228,19.575,91.228,18.784z"/>
							<path fill="#1D1E1C" stroke="#000100" stroke-width="0.1397" stroke-miterlimit="10" d="M75.017,19.063
								c0.048,0,0.093,0,0.14,0c0,0.233,0,0.466,0,0.699s0,0.466,0,0.699C74.838,20.266,75.105,19.488,75.017,19.063z"/>
							<path fill="#1D1E1C" stroke="#000100" stroke-width="0.1397" stroke-miterlimit="10" d="M75.576,21.019
								c0-0.046,0-0.093,0-0.14c0.278,0,0.559,0,0.838,0c0.326,0,0.652,0,0.979,0C77.062,21.202,76.139,20.929,75.576,21.019z"/>
							<path fill="#1D1E1C" stroke="#000100" stroke-width="0.1397" stroke-miterlimit="10" d="M78.511,23.395
								c0.465,0,0.933,0,1.397,0c0,0.047,0,0.094,0,0.141C79.483,23.448,78.705,23.714,78.511,23.395z"/>
							<path fill="#1D1E1C" stroke="#000100" stroke-width="0.1397" stroke-miterlimit="10" d="M82.283,23.535
								c0-0.046,0-0.094,0-0.141c0.513,0,1.024,0,1.537,0C83.582,23.714,82.754,23.447,82.283,23.535z"/>
							<path fill="#1D1E1C" stroke="#000100" stroke-width="0.1397" stroke-miterlimit="10" d="M80.188,23.535
								c0.605,0,1.211,0,1.816,0C81.718,23.767,80.475,23.767,80.188,23.535z"/>
							<path fill="#1D1E1C" stroke="#000100" stroke-width="0.1397" stroke-miterlimit="10" d="M69.427,28.287
								c0.044-0.328,0.222-0.524,0.14-0.979c0.299-0.059,0.068,1.605,0.141,2.236c0.229-0.001,0.078-0.388,0.279-0.419
								c-0.086,0.519,0.228,1.437-0.279,1.537C69.086,30.397,69.59,29.007,69.427,28.287z"/>
							<path fill="#1D1E1C" stroke="#000100" stroke-width="0.1397" stroke-miterlimit="10" d="M80.711,37.747
								c0.186,0,0.688-0.021,0.873-0.021c0.466,0.029,0.703-0.07,1.037,0.016c0.615,0.18-0.803,1.338-0.865,1.752
								c0.062,1.708,0.473,3.067,0.699,4.61c-0.518-0.165-1.039-0.209-1.039-0.209c0,0.015-0.575-0.062-0.575-0.062
								c-0.824-0.044-1.379,0.285-1.32-0.007c0.15-1.108,0.38-2.137,0.421-3.354c0.104-1.033,0.041-1.213-0.468-1.729
								c-0.358-0.745-0.68-0.665-0.724-0.996C79.22,37.659,80.132,37.747,80.711,37.747z"/>
							<path fill="#1D1E1C" stroke="#000100" stroke-width="0.1397" stroke-miterlimit="10" d="M66.91,17.526
								c0.261,0.021,0.086,0.475,0.281,0.56c0.242,0.642,0.438,1.333,0.979,1.677c0.516,1.208,1.628,1.818,2.517,2.655
								c-0.062,0.267-0.303,0.351-0.28,0.699c-0.047,0-0.093,0-0.141,0c0.02-0.261,0.094-0.468,0.28-0.56
								C69.097,21.118,67.401,19.924,66.91,17.526z"/>
							<path fill="#1D1E1C" stroke="#000100" stroke-width="0.1397" stroke-miterlimit="10" d="M92.067,21.998
								c0.813-0.955,1.775-1.765,2.516-2.795C93.987,20.377,92.981,21.142,92.067,21.998z"/>
							<path fill="#1D1E1C" stroke="#000100" stroke-width="0.1397" stroke-miterlimit="10" d="M93.463,10.958
								c0.715,0.544,1.213,1.304,1.537,2.235C94.503,12.433,94.071,11.608,93.463,10.958z"/>
							<path fill="#1D1E1C" stroke="#000100" stroke-width="0.1397" stroke-miterlimit="10" d="M91.507,9.141
								c0.702,0.507,1.45,0.973,1.956,1.677c-0.65-0.515-1.234-1.095-1.956-1.536C91.507,9.234,91.507,9.187,91.507,9.141z"/>
							<path fill="#1D1E1C" stroke="#000100" stroke-width="0.1397" stroke-miterlimit="10" d="M75.437,7.044
								c0.378-0.274,0.927-0.377,1.537-0.419C76.569,6.872,75.989,6.943,75.437,7.044z"/>
							<path fill="#1D1E1C" stroke="#000100" stroke-width="0.1397" stroke-miterlimit="10" d="M69.985,9.839
								c0.618-0.873,1.674-1.309,2.657-1.817C71.83,8.705,70.716,9.079,69.985,9.839z"/>
							<path fill="#1D1E1C" stroke="#000100" stroke-width="0.1397" stroke-miterlimit="10" d="M76.974,6.625
								c0.704-0.18,1.423-0.347,2.375-0.28c1.259,0,2.517,0,3.774,0c3.533,0.193,6.144,1.309,8.384,2.795c0,0.046,0,0.093,0,0.141
								c0.722,0.441,1.306,1.021,1.956,1.536c0,0.047,0,0.094,0,0.141c0.607,0.65,1.04,1.476,1.537,2.236
								c0.172,0.527,0.469,0.929,0.42,1.677c0,0.604,0,1.211,0,1.815c-0.03,1.088-0.448,1.788-0.838,2.517
								c-0.739,1.03-1.701,1.84-2.516,2.795c-0.048,0-0.094,0-0.142,0c5.204-5.869-1.442-12.039-8.663-12.717
								c-6.398-0.602-14.174,2.127-14.814,7.546c-0.095,0.797,0.067,2.313,0.561,3.354c0.559,1.176,2.605,2.506,1.396,2.936
								c-0.021-0.349,0.221-0.434,0.281-0.699c-0.889-0.836-2.001-1.446-2.517-2.655c-0.413-0.472-0.558-1.212-0.979-1.677
								c-0.193-0.085-0.021-0.538-0.279-0.56c0-0.046,0-0.094,0-0.14c-0.646-3.648,1.049-6.109,3.074-7.546
								c0.729-0.761,1.846-1.135,2.656-1.817c0.896-0.358,1.688-0.825,2.794-0.979C75.989,6.943,76.569,6.872,76.974,6.625z"/>
							<path fill="#1D1E1C" stroke="#000100" stroke-width="0.1397" stroke-miterlimit="10" d="M68.17,19.761
								c-0.54-0.345-0.735-1.035-0.979-1.677C67.614,18.549,67.757,19.29,68.17,19.761z"/>
							<path fill="#1D1E1C" stroke="#000100" stroke-width="0.1397" stroke-miterlimit="10" d="M75.856,15.149
								c-0.717,0.122-1.367,0.311-1.816,0.699c-0.225-0.04-0.24,0.132-0.418,0.141c-0.436,0.124-0.651,0.466-1.118,0.558
								c-0.491,0.396-0.987,0.784-1.259,1.398c0,0.046,0,0.093,0,0.139c-0.496,0.598-0.315,2.542-0.141,3.354
								c-0.072,0.586,0.245,0.781,0.28,1.258c0.407,0.784,0.438,1.163-0.56,1.397c0.209,0.301,0.396-0.153,0.56,0.279
								c0.086,0.125,0.169,0.25,0,0.278c-0.125-0.062-0.25-0.122-0.28-0.278c-0.292,0.039,0.204,0.373-0.14,0.559
								c-0.104-0.22-0.442-0.208-0.418-0.559c-0.257,0.224-0.403,0.824,0.141,0.838c0,0.382-0.583,0.896-0.141,1.257
								c0.132,0.63-0.163,1.087-0.28,1.677c-0.113-0.025-0.138-0.141-0.279-0.14c0.197,0.4-0.434,0.763,0.141,0.699
								c0,0.046,0,0.093,0,0.139c-0.137,0.004-0.108,0.171-0.141,0.28c-0.201,0.031-0.05,0.417-0.279,0.419
								c-0.071-0.631,0.158-2.295-0.141-2.236c0.082,0.454-0.096,0.65-0.14,0.979c-0.047,0-0.093,0-0.14,0
								c-0.112-0.484,0.207-0.537,0.14-0.979c0.087-1.543,0.624-2.637,0.839-4.053c0-0.046,0-0.094,0-0.14c0.048,0,0.094,0,0.141,0
								c1.207-0.43-0.84-1.76-1.397-2.936c-0.492-1.04-0.654-2.557-0.562-3.354c0.643-5.419,8.416-8.147,14.815-7.547
								c7.22,0.679,13.867,6.849,8.663,12.718c-0.252,0.156-0.51,1.022,0,1.118c0,0.045,0,0.093,0,0.14
								c0.104,0.783,0.316,1.453,0.42,2.236c0,0.604,0,1.211,0,1.816c-0.137-0.003-0.107-0.171-0.141-0.279
								c-0.254,0.165-0.108,0.729-0.279,0.979c-0.632-0.431-0.585-1.315-0.139-1.817c-0.558,0.553-0.957-0.459-0.979-1.258
								c0.125,0.294,0.389,0.451,0.559,0.699c0.305,0.022,0.063-0.495,0.141-0.699c0.299-0.064,0.268,0.199,0.281,0.42
								c0.347-0.129,0.338-0.938-0.281-0.839c0.046-0.277,0.434-0.999-0.279-0.838c-0.058-0.337,0.256-0.304,0.141-0.699
								c-0.062-0.207-0.18,0.057-0.42,0c0-0.139,0-0.28,0-0.419c0.041-0.29,0.555-1.368,0-0.978c-0.045,0-0.092,0-0.14,0
								c-0.043-0.323,0.403-0.156,0.419-0.42c0.233-0.471,0.233-1.905,0-2.375c0.025-0.12-0.055-0.133-0.14-0.141
								c0-0.046,0-0.093,0-0.14c-0.405-1.55-1.693-2.22-3.073-2.795c-1.062-0.479-2.197-0.879-3.635-0.979
								c-0.373-0.277-1.232-0.071-1.678-0.278c-0.701-0.233-2.373-0.233-3.073,0c-0.222,0.012-0.534-0.067-0.56,0.139
								C77.805,14.583,77.016,15.053,75.856,15.149z"/>
							<path fill="#1D1E1C" stroke="#000100" stroke-width="0.1397" stroke-miterlimit="10" d="M71.244,17.946
								c0.271-0.614,0.767-1.004,1.258-1.398C72.11,17.042,71.662,17.478,71.244,17.946z"/>
							<path fill="#1D1E1C" stroke="#000100" stroke-width="0.1397" stroke-miterlimit="10" d="M71.244,18.084
								c-0.119,0.349-0.185,0.749-0.142,1.258c0,0.466,0,0.932,0,1.398c-0.043,0.323,0.022,0.535,0.142,0.697
								c-0.047,0-0.094,0-0.142,0C70.928,20.626,70.748,18.682,71.244,18.084z"/>
							<path fill="#1D1E1C" stroke="#000100" stroke-width="0.1397" stroke-miterlimit="10" d="M71.384,22.696
								c0.358,0.432,0.924,0.659,1.259,1.118c-0.749-0.479-0.645,0.508-1.259,0.56c-0.164-0.434-0.351,0.021-0.56-0.279
								C71.823,23.859,71.791,23.481,71.384,22.696z"/>
							<path fill="#1D1E1C" stroke="#000100" stroke-width="0.1397" stroke-miterlimit="10" d="M70.546,26.469
								c-0.442-0.361,0.141-0.875,0.141-1.257c-0.544-0.014-0.397-0.615-0.141-0.838c-0.024,0.35,0.312,0.339,0.418,0.559
								c0.344-0.186-0.152-0.52,0.14-0.559c0.03,0.157,0.155,0.218,0.28,0.279C71.117,25.272,71.09,26.128,70.546,26.469z"/>
							<path fill="#1D1E1C" stroke="#000100" stroke-width="0.1397" stroke-miterlimit="10" d="M79.069,14.59
								c0.025-0.207,0.338-0.127,0.561-0.139c1.023,0,2.051,0,3.072,0c0.445,0.207,1.306,0,1.679,0.278
								C82.689,14.605,80.925,14.552,79.069,14.59z"/>
							<path fill="#1D1E1C" stroke="#000100" stroke-width="0.1397" stroke-miterlimit="10" d="M88.015,15.709
								c1.38,0.575,2.668,1.245,3.073,2.795C90.504,17.131,89.233,16.445,88.015,15.709z"/>
							<path fill="#1D1E1C" stroke="#000100" stroke-width="0.1397" stroke-miterlimit="10" d="M91.088,18.643
								c0.085,0.008,0.165,0.021,0.14,0.141c0,0.791,0,1.583,0,2.375c-0.016,0.264-0.462,0.097-0.419,0.42
								c-1.013,0.386-1.968,0.827-3.074,1.117c-0.552,0.102-1.133,0.174-1.537,0.42c-0.916-0.03-1.58,0.19-2.375,0.278
								c-0.514,0-1.025,0-1.537,0c-0.793,0-1.584,0-2.377,0c-0.465,0-0.933,0-1.396,0c-0.49-0.068-0.91-0.208-1.537-0.14
								c-0.343-0.217-0.91-0.208-1.396-0.28c-1.519-0.438-3.056-0.856-4.332-1.537c-0.117-0.162-0.185-0.375-0.142-0.697
								c0.164,0.021,0.118,0.254,0.142,0.418c4.679,2.861,15.149,2.81,19.844,0C91.088,20.321,91.088,19.482,91.088,18.643z"/>
							<path fill="#1D1E1C" stroke="#000100" stroke-width="0.1397" stroke-miterlimit="10" d="M71.244,18.084
								c0-0.046,0-0.093,0-0.139c0.418-0.468,0.865-0.904,1.258-1.398c0.467-0.092,0.684-0.434,1.117-0.558
								c-1.143,0.814-2.39,1.523-2.517,3.354C71.061,18.833,71.125,18.433,71.244,18.084z"/>
							<path fill="#1D1E1C" stroke="#000100" stroke-width="0.1397" stroke-miterlimit="10" d="M74.039,15.848
								c0.447-0.39,1.1-0.577,1.815-0.699C75.332,15.466,74.636,15.607,74.039,15.848z"/>
							<path fill="#1D1E1C" stroke="#000100" stroke-width="0.1397" stroke-miterlimit="10" d="M84.8,16.966c0.045,0,0.092,0,0.14,0
								c0,0.465,0,0.932,0,1.397c0.918-0.034,1.754,0.017,2.377,0.279c-0.089,0.798-0.076,1.695-0.281,2.375
								c-1.951,0.244-3.142-0.048-2.375-2.234c0,0.419,0,0.838,0,1.258c0,0.186,0,0.373,0,0.559
								c0.565,0.227,1.299,0.285,2.098,0.279c0.477-0.362,0.126-1.55,0.418-2.096c-0.23-0.234-0.821-0.112-1.258-0.141
								c-0.062-0.23-1.057-0.23-1.117,0c-0.047,0-0.096,0-0.141,0c-0.521-0.226-1.375-0.115-2.097-0.14
								c-0.29,0.502-0.073,1.512-0.141,2.236c-0.587,0.296-1.702,0.067-2.515,0.139c-0.28-1.071,0.347-3.048-1.678-2.375
								c0-0.047,0-0.093,0-0.14c0.512,0,1.024,0,1.537,0c0.186-0.287,0.266-1.402,0-1.678c0.073-0.112,0.146-0.227,0.141-0.419
								c-0.03-0.434-0.695-0.235-1.117-0.278c0.154-0.281,1.08-0.16,1.257,0c0,0.697,0,1.396,0,2.095
								c0.444,0.254,1.782,0.204,2.235,0c0,0.094,0,0.187,0,0.28c-0.744,0-1.49,0-2.235,0c-0.162,0.165-0.157,0.493-0.14,0.839
								c0,0.466,0,0.932,0,1.396c0.496,0.206,1.886,0.252,2.375,0c0-0.651,0-1.304,0-1.957c0.138-0.003,0.107-0.171,0.14-0.279
								c0.746,0,1.491,0,2.235,0C84.906,18.099,84.762,17.441,84.8,16.966z"/>
							<path fill="#1D1E1C" stroke="#000100" stroke-width="0.1397" stroke-miterlimit="10" d="M83.821,15.989
								c0.373,0,0.746,0,1.118,0c0.199,0.186,0.199,0.791,0,0.978c-0.048,0-0.095,0-0.14,0c0-0.28,0-0.559,0-0.839
								c-0.328,0-0.653,0-0.979,0c-0.467,0-0.934,0-1.398,0C82.617,15.809,83.397,16.077,83.821,15.989z"/>
							<path fill="#1D1E1C" stroke="#000100" stroke-width="0.1397" stroke-miterlimit="10" d="M82.283,16.687
								c-0.02-0.344-0.021-0.673,0.14-0.838c0.425,0.087,1.204-0.179,1.397,0.141c-0.425,0.087-1.203-0.18-1.397,0.139
								c0,0.187,0,0.373,0,0.559C82.377,16.687,82.328,16.687,82.283,16.687z"/>
							<path fill="#1D1E1C" stroke="#000100" stroke-width="0.1397" stroke-miterlimit="10" d="M78.092,16.128
								c0-0.046,0-0.093,0-0.139c0.232,0,0.465,0,0.699,0c0.422,0.043,1.087-0.155,1.117,0.278c-0.181-0.191-0.607-0.138-0.979-0.14
								C78.651,16.128,78.371,16.128,78.092,16.128z"/>
							<path fill="#1D1E1C" stroke="#000100" stroke-width="0.1397" stroke-miterlimit="10" d="M77.393,17.106
								c-0.057-0.615-0.035-1.155,0.699-0.979c0.279,0,0.559,0,0.839,0c-0.431,0.362-1.851-0.266-1.397,0.979
								C77.487,17.106,77.439,17.106,77.393,17.106z"/>
							<path fill="#1D1E1C" stroke="#000100" stroke-width="0.1397" stroke-miterlimit="10" d="M78.931,16.128
								c0.37,0.002,0.798-0.052,0.978,0.14c0.008,0.192-0.065,0.307-0.14,0.419c0,0.513,0,1.025,0,1.537c-0.698,0-1.397,0-2.097,0
								c-0.075-0.203,0.164-0.722-0.141-0.698c0-0.14,0-0.279,0-0.419C77.08,15.863,78.5,16.491,78.931,16.128z"/>
							<path fill="#1D1E1C" stroke="#000100" stroke-width="0.1397" stroke-miterlimit="10" d="M79.769,16.687
								c0.265,0.274,0.187,1.391,0,1.678c-0.513,0-1.024,0-1.536,0c-0.705,0.191-0.794-0.231-0.699-0.839
								c0.304-0.022,0.063,0.495,0.14,0.698c0.698,0,1.397,0,2.097,0C79.769,17.712,79.769,17.2,79.769,16.687z"/>
							<path fill="#1D1E1C" stroke="#000100" stroke-width="0.1397" stroke-miterlimit="10" d="M76.414,18.643
								c0-0.046,0-0.093,0-0.14c0.326,0,0.652,0,0.979,0c-0.021,0.162,0.031,0.249,0.141,0.28c0,0.372,0,0.745,0,1.116
								c-0.041,0.38,0.196,1.036-0.42,0.84c0.004-0.137,0.172-0.109,0.279-0.141c0-0.604,0-1.211,0-1.815
								C77.213,18.59,76.785,18.645,76.414,18.643z"/>
							<path fill="#1D1E1C" stroke="#000100" stroke-width="0.1397" stroke-miterlimit="10" d="M79.908,19.203
								c-0.019-0.346-0.022-0.674,0.14-0.839c0.745,0,1.491,0,2.235,0c0,0.093,0,0.187,0,0.279c0,0.652,0,1.306,0,1.957
								c-0.701-0.091-1.768,0.184-2.235-0.14c0.698,0,1.397,0,2.097,0c0-0.652,0-1.305,0-1.957c-0.699,0-1.396,0-2.097,0
								c0,0.233,0,0.465,0,0.699C80.002,19.203,79.953,19.203,79.908,19.203z"/>
							<path fill="#1D1E1C" stroke="#000100" stroke-width="0.1397" stroke-miterlimit="10" d="M79.908,19.203
								c0.045,0,0.094,0,0.14,0c0,0.419,0,0.839,0,1.258c0.469,0.323,1.534,0.049,2.235,0.14c-0.489,0.252-1.879,0.206-2.375,0
								C79.908,20.134,79.908,19.668,79.908,19.203z"/>
							<path fill="#1D1E1C" stroke="#000100" stroke-width="0.1397" stroke-miterlimit="10" d="M75.156,19.063
								c-0.203-0.669,0.584-0.348,0.979-0.419c-0.018,0.31-0.592,0.061-0.839,0.141c-0.149,0.882,0.386,1.392,0.141,1.957
								c0.325,0,0.652,0,0.979,0c0,0.046,0,0.093,0,0.139c-0.28,0-0.561,0-0.838,0c-0.654,0.142,0.022-1.05-0.422-1.118
								C75.156,19.529,75.156,19.296,75.156,19.063z"/>
							<path fill="#1D1E1C" stroke="#000100" stroke-width="0.1397" stroke-miterlimit="10" d="M85.916,18.643
								c0.438,0.028,1.027-0.094,1.259,0.141c-0.292,0.545,0.06,1.733-0.418,2.096c-0.8,0.006-1.531-0.053-2.099-0.279
								c0-0.186,0-0.373,0-0.559c0.31-0.019,0.061-0.593,0.142-0.839c0.379,0.1-0.101-0.659,0.278-0.56
								C85.358,18.643,85.637,18.643,85.916,18.643z"/>
							<path fill="#1D1E1C" stroke="#000100" stroke-width="0.1397" stroke-miterlimit="10" d="M77.531,19.901
								c0.047,0,0.094,0,0.141,0c-0.102,0.429,0.24,0.412,0.14,0.84c-0.11,0.072-0.228,0.145-0.419,0.139c-0.324,0-0.652,0-0.979,0
								c0-0.046,0-0.093,0-0.139c0.234,0,0.466,0,0.699,0C77.73,20.936,77.49,20.281,77.531,19.901z"/>
							<path fill="#1D1E1C" stroke="#000100" stroke-width="0.1397" stroke-miterlimit="10" d="M71.384,22.696
								c-0.035-0.478-0.354-0.672-0.28-1.258c0.049,0,0.094,0,0.141,0c1.277,0.681,2.814,1.099,4.334,1.537
								c0.316,0.241,0.816,0.299,1.396,0.28c0.627-0.069,1.047,0.071,1.537,0.14c0.194,0.319,0.974,0.053,1.397,0.141
								c0.094,0,0.187,0,0.278,0c0.287,0.231,1.53,0.231,1.816,0c0.093,0,0.187,0,0.28,0c0.47-0.088,1.297,0.18,1.537-0.141
								c0.795-0.088,1.459-0.31,2.375-0.278c0.609-0.042,1.159-0.146,1.537-0.42c1.106-0.29,2.062-0.731,3.074-1.117
								c0.047,0,0.094,0,0.141,0c0.553-0.391,0.039,0.688,0,0.978c-0.47,0.512-0.897,1.06-1.539,1.397
								c-1.516,1.045-3.467,1.654-5.867,1.815c-1.538,0.094-3.446-0.185-4.752,0.142c-2.311-0.44-4.668-0.829-6.147-2.098
								C72.308,23.356,71.742,23.127,71.384,22.696z"/>
							<path fill="#1D1E1C" stroke="#000100" stroke-width="0.1397" stroke-miterlimit="10" d="M75.576,22.975
								c0.486,0.071,1.055,0.063,1.396,0.28C76.395,23.275,75.895,23.216,75.576,22.975z"/>
							<path fill="#1D1E1C" stroke="#000100" stroke-width="0.1397" stroke-miterlimit="10" d="M86.198,23.116
								c0.403-0.246,0.984-0.318,1.535-0.42C87.356,22.97,86.807,23.074,86.198,23.116z"/>
							<path fill="#1D1E1C" stroke="#000100" stroke-width="0.1397" stroke-miterlimit="10" d="M89.55,24.094
								c0.028-0.159,0.142-0.078,0.142,0c0.342-0.079,0.297-0.541,0.838-0.419c-0.156-0.172-0.121-0.288,0.142-0.28
								c0.056,0.337-0.257,0.305-0.142,0.699c-0.113-0.027-0.14-0.141-0.279-0.14c0.056,0.476,0.432,0.229,0,0.559
								c-0.381,0.103-0.28-0.276-0.559-0.28C89.571,24.258,89.559,24.179,89.55,24.094z"/>
							<path fill="#1D1E1C" stroke="#000100" stroke-width="0.1397" stroke-miterlimit="10" d="M91.367,29.264
								c-0.019-2.218-0.793-3.68-1.678-5.031c0.278,0.003,0.18,0.382,0.559,0.28c0.433-0.329,0.057-0.083,0-0.559
								c0.142,0,0.168,0.112,0.281,0.14c-0.115-0.396,0.195-0.362,0.141-0.699c-0.264-0.008-0.299,0.107-0.141,0.28
								c-0.541-0.122-0.496,0.341-0.84,0.419c0.002-0.078-0.111-0.159-0.141,0c-0.118,0.025-0.131-0.055-0.141-0.14
								c0.642-0.338,1.069-0.888,1.539-1.397c0,0.14,0,0.28,0,0.419c0.239,0.057,0.357-0.207,0.418,0
								c0.117,0.396-0.196,0.362-0.14,0.699c0.713-0.16,0.325,0.562,0.279,0.838c0.618-0.099,0.628,0.709,0.28,0.839
								c-0.015-0.221,0.019-0.484-0.28-0.42c-0.076,0.204,0.164,0.723-0.14,0.699c-0.172-0.248-0.435-0.404-0.56-0.699
								c0.022,0.799,0.422,1.811,0.979,1.258c-0.447,0.502-0.494,1.387,0.138,1.817c0.171-0.25,0.026-0.812,0.28-0.978
								c0.031,0.107,0.004,0.275,0.14,0.278c-0.108,0.098-0.31,0.78,0,0.838c0,0.141,0,0.279,0,0.419
								c-0.136,0.003-0.108,0.171-0.14,0.279c-0.112,0.587-0.401,0.997-0.418,1.677c0.299-0.421,0.115-0.421,0.418,0
								c-0.027,0.114-0.143,0.14-0.141,0.279c-0.248-0.031-0.699,0.142-0.56-0.279C91.847,30.263,91.521,29.495,91.367,29.264z"/>
							<path fill="#1D1E1C" stroke="#000100" stroke-width="0.1397" stroke-miterlimit="10" d="M92.205,28.844
								c0.031-0.107,0.004-0.274,0.141-0.279c-0.126,0.711,0.287,1.965-0.279,2.235c-0.002-0.141,0.112-0.166,0.141-0.279
								C92.205,29.964,92.205,29.405,92.205,28.844z"/>
							<path fill="#1D1E1C" stroke="#000100" stroke-width="0.1397" stroke-miterlimit="10" d="M70.125,28.844
								c-0.146,0.646,0.365,1.947-0.418,1.956c-0.842-0.137-0.236-1.719-0.42-2.515c0.047,0,0.093,0,0.14,0
								c0.163,0.722-0.341,2.11,0.28,2.375c0.506-0.101,0.191-1.019,0.277-1.537C70.018,29.016,69.99,28.849,70.125,28.844z"/>
							<path fill="#1D1E1C" stroke="#000100" stroke-width="0.1397" stroke-miterlimit="10" d="M78.092,16.128
								c-0.734-0.177-0.756,0.363-0.699,0.979c0,0.326,0,0.652,0,0.979c-0.322-0.422-0.05-1.441-0.14-2.096c0.278,0,0.559,0,0.839,0
								C78.092,16.036,78.092,16.083,78.092,16.128z"/>
							<path fill="#1D1E1C" stroke="#000100" stroke-width="0.1397" stroke-miterlimit="10" d="M75.017,19.063
								c-0.073-0.111-0.146-0.227-0.14-0.419c0.18-0.19,0.607-0.139,0.979-0.14c0.188,0,0.373,0,0.561,0c0,0.047,0,0.094,0,0.14
								c-0.094,0-0.188,0-0.28,0c-0.396,0.072-1.181-0.25-0.979,0.419C75.11,19.063,75.064,19.063,75.017,19.063z"/>
							<path fill="#1D1E1C" stroke="#000100" stroke-width="0.1397" stroke-miterlimit="10" d="M84.658,20.042
								c0-0.419,0-0.839,0-1.258c0-0.047,0-0.094,0-0.141c0.047,0,0.095,0,0.142,0c0,0.188,0,0.373,0,0.56
								C84.719,19.449,84.968,20.024,84.658,20.042z"/>
							<path fill="#1D1E1C" stroke="#000100" stroke-width="0.1397" stroke-miterlimit="10" d="M75.156,19.761
								c0.443,0.068-0.233,1.259,0.42,1.118c0,0.047,0,0.093,0,0.14c-0.467,0.142-0.459-0.192-0.42-0.559
								C75.156,20.227,75.156,19.995,75.156,19.761z"/>
							<path fill="#1D1E1C" stroke="#000100" stroke-width="0.1397" stroke-miterlimit="10" d="M78.791,25.912
								c1.305-0.326,3.213-0.048,4.75-0.142c-0.031,0.109-0.117,0.163-0.278,0.142c-1.444,0-2.89,0-4.332,0
								C78.884,25.912,78.837,25.912,78.791,25.912z"/>
							<path fill="#1D1E1C" stroke="#000100" stroke-width="0.1397" stroke-miterlimit="10" d="M92.485,27.169
								c0.082,0.453-0.095,0.648-0.14,0.978c-0.31-0.059-0.108-0.741,0-0.838c0-0.604,0-1.211,0-1.816
								C92.666,25.776,92.396,26.651,92.485,27.169z"/>
							<path fill="#1D1E1C" stroke="#000100" stroke-width="0.1397" stroke-miterlimit="10" d="M70.125,28.706
								c-0.572,0.063,0.059-0.298-0.141-0.699c0.144-0.001,0.168,0.113,0.28,0.14C70.24,28.355,70.317,28.662,70.125,28.706z"/>
							<path fill="#1D1E1C" stroke="#000100" stroke-width="0.1397" stroke-miterlimit="10" d="M91.367,29.264
								c0.152,0.23,0.479,1,0.14,1.257C91.189,30.374,91.453,29.644,91.367,29.264z"/>
							<path fill="#1D1E1C" stroke="#000100" stroke-width="0.1397" stroke-miterlimit="10" d="M92.205,30.521
								c-0.301-0.421-0.117-0.421-0.418,0c0.018-0.68,0.307-1.09,0.418-1.677C92.205,29.405,92.205,29.964,92.205,30.521z"/>
							<path fill="#1D1E1C" stroke="#000100" stroke-width="0.1397" stroke-miterlimit="10" d="M79.908,23.395
								c0.791,0,1.584,0,2.375,0c0,0.047,0,0.094,0,0.141c-0.095,0-0.188,0-0.279,0c-0.605,0-1.211,0-1.816,0
								c-0.093,0-0.186,0-0.279,0C79.908,23.489,79.908,23.442,79.908,23.395z"/>
							<path fill="#1D1E1C" stroke="#000100" stroke-width="0.1397" stroke-miterlimit="10" d="M82.423,16.128
								c0.466,0,0.933,0,1.397,0c-0.022,0.396,0.861-0.116,0.838,0.28c-0.057,0.595,0.137,1.438-0.14,1.815
								c-0.681-0.063-1.636,0.147-2.097-0.14c0-0.465,0-0.931,0-1.397C82.423,16.501,82.423,16.314,82.423,16.128z"/>
							<path fill="#1D1E1C" stroke="#000100" stroke-width="0.1397" stroke-miterlimit="10" d="M78.931,25.912
								c1.442,0,2.888,0,4.332,0C82.143,26.144,80.05,26.144,78.931,25.912z"/>
						</g>
					</g>
					<path fill="#FFFFFF" stroke="#1D1E1C" stroke-width="0.3961" stroke-miterlimit="10" d="M85.323,37.701
						c-0.76-0.405-12.385,0.117-13.146-0.283c-1.616-1.041-2.984-2.327-3.074-4.894c-0.23-0.422-0.97-0.334-1.119-0.839
						c0-1.257,0-2.515,0-3.772c0.137-0.003,0.109-0.17,0.141-0.279c0.391-0.177,0.69-0.345,1.119-0.14
						c0.067,0.44-0.254,0.494-0.141,0.979c0.184,0.795-0.422,2.377,0.418,2.516c0.783-0.01,0.273-1.311,0.42-1.956
						c0-0.048,0-0.094,0-0.141c0.19-0.044,0.115-0.35,0.141-0.559c0.117-0.59,0.412-1.046,0.279-1.677
						c0.545-0.341,0.571-1.198,0.838-1.817c0.17-0.029,0.086-0.155,0-0.279c0.615-0.051,0.51-1.037,1.258-0.559
						c1.48,1.268,3.842,1.657,6.15,2.096c0.045,0,0.092,0,0.139,0c1.119,0.233,3.213,0.233,4.332,0
						c0.162,0.023,0.25-0.031,0.279-0.14c2.4-0.161,4.352-0.771,5.869-1.817c0.008,0.086,0.021,0.166,0.141,0.142
						c0.008,0.085,0.021,0.165,0.14,0.139c0.886,1.351,1.659,2.812,1.676,5.031c0.089,0.379-0.175,1.107,0.14,1.258
						c-0.14,0.42,0.312,0.247,0.561,0.278c0.568-0.271,0.152-1.523,0.279-2.235c0-0.14,0-0.279,0-0.419
						c0.045-0.328,0.223-0.525,0.141-0.979c1.562,0.286,1.4,4.875-0.141,5.032c-0.162,0.022-0.151,0.219-0.14,0.418
						c-0.312,2.346-1.676,3.635-3.216,4.753C87.733,37.65,86.162,37.377,85.323,37.701L85.323,37.701z"/>
				</g>
			</g>
		</g>
		<g>
			<circle fill="#FFFFFF" cx="45.649" cy="64.335" r="40.977"/>
			<g id="llOFxA_1_">
				<g>
					<path fill="#000100" d="M15.569,84.889c-4.475-7.39-6.623-15.033-5.76-24.29c0.936-10.042,6.479-17.707,12.521-23.04
						c5.725-5.055,12.899-8.167,21.033-8.765c16.813-1.237,30.34,9.836,35.555,21.786c2.826,6.477,3.578,18.096,1.002,25.544
						c-0.874,2.529-2.268,5.666-3.758,8.013c-1.553,2.453-4.984,7.555-8.262,7.513c-2.646-0.033-4.408-2.355-4.509-4.257
						c-0.09-1.739,1.431-3.493,2.255-4.507c3.393-4.179,7.36-9.19,7.262-18.28c-0.076-7.087-2.836-12.628-6.512-17.03
						c-5.109-6.124-12.183-10.711-23.535-9.767c-10.647,0.887-20.268,9.245-23.287,19.032c-2.095,6.793-1.238,15.712,3.256,22.789
						c0.953,1.503,5.148,4.725,5.008,7.763c-0.09,1.937-2.312,4.17-4.258,4.257C19.158,91.846,18.274,87.003,15.569,84.889z"/>
					<path fill="#000100" d="M44.865,41.816c6.129-1.38,4.195,7.769-0.5,6.011C42.834,47.252,40.735,42.747,44.865,41.816z"/>
					<path fill="#000100" d="M45.117,57.092c1.379-0.092,1.696-1.7,2.504-2.756c1.359-1.781,3.207-3.766,4.758-5.76
						c1.152-1.484,2.127-4.105,5.255-3.756c1.448,0.161,2.981,1.556,3.255,2.755c0.875,3.831-4.002,7.585-6.259,10.519
						c-1.026,1.334-2.183,3.062-3.505,4.759c-1.729,2.221-2.735,4.508-5.51,4.508c-3.018,0-4.578-3.271-6.26-5.008
						c-0.955-0.985-4.798-3.032-4.758-6.264c0.032-2.562,1.895-4.199,4.758-3.756C41.817,52.713,43.067,56.01,45.117,57.092z"/>
					<path fill="#000100" d="M24.082,60.348c1.681-0.461,4.049,0.641,4.257,2.755c0.43,4.375-5.931,4.547-6.511,1.003
						C21.539,62.344,21.977,60.927,24.082,60.348z"/>
					<path fill="#000100" d="M65.146,60.348c1.789-0.557,4.089,0.576,4.259,2.756c0.334,4.293-6.379,4.983-6.512,0.501
						C62.844,61.98,63.598,60.833,65.146,60.348z"/>
					<path fill="#000100" d="M35.351,92.651c3.416,0.722,8.897-0.802,9.265,2.507c0.149,1.335-0.365,1.337-0.75,2.503
						c-1.985,0.8-5.177,0.501-8.765,0.501c-3.47,0-8.343,0.714-8.764-2.254c-0.418-2.939,3.188-5.082,5.509-6.762
						c2.049-1.48,6.298-3.229,5.759-6.26c-0.233-1.315-1.422-1.711-2.504-2.255c-3.774,0.288-1.577,5.496-6.26,4.508
						c-1.25-0.265-2.281-1.788-2.003-4.006c0.851-6.817,14.312-6.622,16.777-1.252c2.238,4.877-1.64,8.153-4.508,10.016
						C37.972,90.633,36.723,91.131,35.351,92.651z"/>
					<path fill="#000100" d="M61.14,88.395c1.588,0.722,3.056,1.106,3.004,3.004c-0.044,1.664-1.356,2.177-3.004,2.756
						c1.343,5.878-7.31,5.807-6.008,0c-2.318-0.874-8.604,0.783-10.015-1.752c-0.862-4.432,1.631-5.967,4.758-9.768
						c2.109-2.567,3.586-4.999,5.006-6.01c1.164-0.828,3.979-1.228,5.257-0.25C62.547,78.213,60.39,84.437,61.14,88.395z"/>
				</g>
			</g>
		</g>
	</g>
</g>
</svg>
