<?xml version="1.0" encoding="utf-8"?>
<!-- Generator: Adobe Illustrator 15.0.0, SVG Export Plug-In . SVG Version: 6.00 Build 0)  -->
<!DOCTYPE svg PUBLIC "-//W3C//DTD SVG 1.1//EN" "http://www.w3.org/Graphics/SVG/1.1/DTD/svg11.dtd">
<svg version="1.1" id="Capa_1" xmlns="http://www.w3.org/2000/svg" xmlns:xlink="http://www.w3.org/1999/xlink" x="0px" y="0px"
	 width="113.387px" height="113.386px" viewBox="0 0 113.387 113.386" enable-background="new 0 0 113.387 113.386"
	 xml:space="preserve">
<g id="IeTs5I_1_">
	<g>
		<path fill-rule="evenodd" clip-rule="evenodd" d="M61.193,10.193c4.806,9.498,4.806,36.502,0,46c-2.903,1.296-7.097,1.296-10,0
			c-6.157-9.177-1.598-29.068-3-43C50.261,10.26,56.448,7.243,61.193,10.193z"/>
		<path fill-rule="evenodd" clip-rule="evenodd" d="M71.193,24.193c13.986-12.286,28.797,15.974,29,32
			c0.187,14.692-7.288,27.309-15,34c-26.523,23.014-72.504,6.023-73-33c-0.21-16.593,7.667-28.659,18-35
			c2.611-1.603,9.384-3.962,11,4c1.919,9.457-8.767,11.148-12,19c-10.203,24.782,15.383,44.938,36,39
			c13.453-3.874,24.273-21.516,18-38C80.04,37.911,71.032,37.087,71.193,24.193z"/>
		<g>
		</g>
	</g>
</g>
</svg>
