<?xml version="1.0" encoding="utf-8"?>
<!-- Generator: Adobe Illustrator 15.0.0, SVG Export Plug-In . SVG Version: 6.00 Build 0)  -->
<!DOCTYPE svg PUBLIC "-//W3C//DTD SVG 1.1//EN" "http://www.w3.org/Graphics/SVG/1.1/DTD/svg11.dtd">
<svg version="1.1" id="Capa_1" xmlns="http://www.w3.org/2000/svg" xmlns:xlink="http://www.w3.org/1999/xlink" x="0px" y="0px"
	 width="113.387px" height="113.386px" viewBox="0 0 113.387 113.386" enable-background="new 0 0 113.387 113.386"
	 xml:space="preserve">
<g>
	<path fill="#FFFFFF" stroke="#1D1E1C" stroke-width="0.8554" stroke-miterlimit="10" d="M54.723,62.875
		c-3.988-4.605-12.533-3.518-21.429-3.62c-0.38,0.125-0.616,0.39-0.604,0.905c0,11.065,0,22.13,0,33.195c2.113,0,4.227,0,6.339,0
		c0.19-4.231-0.394-9.242,0.302-12.977c6.807,0.248,12.596,0.272,15.692-3.622C57.901,73.136,57.994,66.655,54.723,62.875z
		 M49.591,73.438c-1.979,2.027-5.945,1.321-10.259,1.511c-0.531-2.015-0.21-5.806-0.302-9.055c-0.015-0.517,0.224-0.783,0.604-0.906
		c3.681,0.333,7.375-0.817,9.658,1.207C51.134,67.833,51.509,71.472,49.591,73.438z"/>
	<g>
		<path fill="#1D1E1C" stroke="#FFFFFF" stroke-width="0.3018" stroke-miterlimit="10" d="M90.333,23.594
			c0.38,3.902-1.864,5.178-3.93,6.636c-0.473,3.196-3.552,3.321-3.925,6.039c-0.803,5.966,8.908,8.163,8.453,14.787
			c-5.22,4.072-9.219,0.046-12.068-3.62c-1.039-1.342-2.117-3.297-2.415-3.321c-1.02-0.087-2.675,3.15-3.921,4.526
			c-1.271,1.392-3.431,3.462-4.528,3.622c-2.829,0.406-12.756,0.68-14.485-0.604c-1.865-1.383-1.117-4.28-3.924-5.736
			c-3.094,0.47-6.233-0.645-8.45,0c-2.598,0.757-2.561,3.27-3.62,5.434c-2.045,0.66-5.546,2.091-7.849,0.602
			c-1.604-2.576,0.219-5.96,1.814-7.243c1.526-5.159,4.511-11.189,6.936-16.596c0.818-1.813,1.748-4.128,2.719-4.83
			c2.247-1.619,6.78-1.382,8.752,0.305c0.974,0.832,1.066,2.202,1.811,3.921c0.605,1.394,1.69,2.703,2.114,3.621
			c2.587,5.631,3.728,12.487,7.842,16.299c2.294-0.678,3.233-2.893,4.83-4.831c1.262-1.537,3.853-3.618,3.924-5.432
			c0.19-4.767-9.636-7.34-7.848-13.579c6.543-4.151,10.673,2.995,13.579,6.336C79.91,27.049,83.816,19.056,90.333,23.594z
			 M44.156,38.681c0.944-0.062,2.218,0.204,2.717-0.303c-0.032-1.677,0.243-3.659-0.604-4.525
			C43.324,33.31,43.066,36.964,44.156,38.681z"/>
		<path fill="#1D1E1C" stroke="#FFFFFF" stroke-width="0.3018" stroke-miterlimit="10" d="M94.857,23.29
			c9.844-4.447,7.927,6.719,7.542,15.392c-0.254,5.869,1.807,15.376-4.825,14.183c-4.396-0.789-3.588-8.712-3.321-14.785
			C94.506,32.246,93.79,26.866,94.857,23.29z"/>
		<path fill="#1D1E1C" stroke="#FFFFFF" stroke-width="0.3018" stroke-miterlimit="10" d="M34.199,27.818
			c-1.424,2.4-5.752,1.891-9.051,2.415c-3.467,6.35,3.496,27.888-9.056,21.124c-1.417-6.171-0.385-12.929-0.604-20.221
			c-3.038-2.4-9.689,0.148-10.259-4.224c-0.745-5.719,9.782-4.562,17.504-4.226C28.111,22.925,35.339,20.86,34.199,27.818z"/>
	</g>
	<path fill="#FFFFFF" stroke="#1D1E1C" stroke-width="0.8554" stroke-miterlimit="10" d="M63.169,59.254c0,11.366,0,22.735,0,34.1
		c7.444,0,14.889,0,22.332,0c0-1.811,0-3.619,0-5.431c-5.237-0.192-11.258,0.392-15.993-0.303c0-2.816,0-5.631,0-8.449
		c4.523,0,9.054,0,13.58,0c0-1.909,0-3.823,0-5.733c-4.427-0.202-9.659,0.401-13.58-0.302c0-2.715,0-5.432,0-8.148
		c5.332,0,10.658,0,15.993,0c-0.159-1.851,0.343-4.368-0.303-5.733C77.86,59.254,70.514,59.254,63.169,59.254z"/>
</g>
</svg>
