<?xml version="1.0" encoding="utf-8"?>
<!-- Generator: Adobe Illustrator 15.0.0, SVG Export Plug-In . SVG Version: 6.00 Build 0)  -->
<!DOCTYPE svg PUBLIC "-//W3C//DTD SVG 1.1//EN" "http://www.w3.org/Graphics/SVG/1.1/DTD/svg11.dtd">
<svg version="1.1" id="Capa_1" xmlns="http://www.w3.org/2000/svg" xmlns:xlink="http://www.w3.org/1999/xlink" x="0px" y="0px"
	 width="113.387px" height="113.386px" viewBox="0 0 113.387 113.386" enable-background="new 0 0 113.387 113.386"
	 xml:space="preserve">
<g>
	<g id="CfzyHx_2_">
		<g>
			<path fill="#000100" d="M91.916,41.444c2.221,0.048,4.556-0.142,7.507-0.138c1.398,0.003,3.567,0.062,4.231,0.547
				c1.281,0.937,1.461,4.585,0.407,5.867c-1.236,1.511-3.553,0.5-5.05,1.502c0.167,1.31,1.139,2.718,1.365,4.368
				c0.097,0.708-0.07,1.852,0,2.729c0.43,5.385,1.365,11.582,1.365,18.97c0,3.119,0,6.746,0,10.51c0,3.389,0.534,7.901-0.41,9.963
				c-1.652,3.608-7.329,2.183-11.736,2.457c-1.114-0.674-2.049-0.843-2.73-1.772c-1.83-2.503-0.311-7.873-0.818-12.011
				c-19.017-0.317-38.625-0.045-57.863-0.138c-0.677,3.429,0.5,7.815-0.271,10.646c-0.372,1.359-1.618,2.736-3.003,3.139
				c-2.359,0.684-6.381-0.231-9.146,0.136c-1.43-0.772-2.823-1.623-3.274-3.139c-0.438-1.47-0.137-3.823-0.137-6.006
				c0-6.035-0.288-12.405,0-18.424c0.143-2.963,0.637-5.909,0.818-8.735c0.31-4.763,0.352-9.257,1.911-12.556
				c-1.575-1.019-4.182-0.411-5.187-1.774c-0.776-1.056-0.741-3.718-0.136-4.914c0.814-1.608,2.444-1.273,4.777-1.228
				c2.585,0.05,5.176-0.133,7.37,0c0.612-0.941,0.791-2.147,1.092-3.276c0.89-3.34,1.667-6.962,2.592-10.373
				c0.67-2.468,1.003-4.684,2.047-6.688c1.127-2.163,2.945-4.354,5.188-5.597c0.796-0.441,2.158-1.059,3.273-1.229
				c0.703-0.105,2.09-0.101,2.729-0.135c2.592-0.145,5.263,0.11,7.913,0.136c7.936,0.076,15.848-0.136,23.611-0.136
				c2.091,0,4.51-0.021,6.688,0.136c2.679,0.192,4.709,1.448,6.144,2.729c1.354,1.209,2.484,2.494,3.412,4.505
				c0.19,0.414,0.556,0.862,0.683,1.229c0.347,0.995,0.398,2.185,0.684,3.275c0.254,0.983,0.729,1.919,0.954,2.865
				c0.507,2.116,0.954,4.203,1.502,6.279C90.97,37.272,91.392,39.371,91.916,41.444z M33.781,22.881
				c-1.42,1.737-1.642,4.223-2.32,6.824c-0.761,2.917-1.747,6.337-2.457,9.145c-0.197,0.778-0.196,1.694-0.409,2.456
				c-0.297,1.064-0.646,1.643-0.546,2.457c0.229,1.844,2.315,3.686,4.232,4.504c2.837,1.212,8.256,0.683,12.824,0.683
				c7.769,0,15.682,0,23.201,0c4.321,0,10.693,0.608,13.647-0.683c0.857-0.374,1.696-1.039,2.457-1.774
				c0.606-0.587,1.646-2.018,1.638-2.866c-0.019-1.701-0.779-3.709-1.229-5.459c-1.018-3.97-1.964-8.223-3.001-12.011
				c-0.388-1.409-0.792-2.701-1.775-3.412c-15.013-0.228-30.982-0.228-45.989,0C33.948,22.776,33.783,22.748,33.781,22.881z
				 M25.591,65.6c-1.633,2.438-1.362,6.438,0.684,8.6c2.476,2.614,7.473,2.329,9.825-0.137c1.031-1.081,1.875-3.366,1.774-4.914
				c-0.239-3.656-3.299-6.389-6.688-6.278C28.473,62.958,26.677,63.978,25.591,65.6z M77.312,66.008
				c-0.938,1.566-1.412,4.081-0.682,6.006c0.594,1.565,2.438,3.313,3.957,3.821c3.316,1.108,7.669-0.54,8.735-4.229
				c1.457-5.04-2.461-8.863-6.414-8.735C79.926,62.966,78.373,64.242,77.312,66.008z M45.921,64.781
				c-0.255,0.573-0.548,6.232,0,7.371c0.695,1.44,3.685,1.092,5.868,1.092c4.274,0,7.521-0.15,11.33-0.137
				c1.831,0.006,4.271,0.477,5.05-0.546c0.95-1.25,0.637-7.525-0.137-8.325c-0.742-0.77-3.199-0.546-4.776-0.546
				c-4.366,0-6.792,0-10.646,0c-1.803,0-4.504-0.179-5.459,0.136C46.671,63.984,46.121,64.333,45.921,64.781z"/>
			<path fill="#000100" d="M51.244,29.841c-0.462-1.649-0.326-3.652,1.228-4.094c1.33-0.378,3.659,0,5.459,0
				c1.822,0,4.314-0.188,4.913,0.546c0.611,0.749,0.662,3.16,0,3.821c-0.676,0.676-3.266,0.41-5.321,0.41
				C54.908,30.525,52.208,30.877,51.244,29.841z"/>
		</g>
	</g>
</g>
</svg>
